<svg width="49" height="46" viewBox="0 0 49 46" fill="none" xmlns="http://www.w3.org/2000/svg">
<path d="M31.3354 17.1024C29.687 16.4983 28.2119 16.6223 27.6803 16.7598L28.5583 17.1231C29.2331 17.4674 30.7047 18.1673 31.1921 18.213C31.8012 18.2701 35.5817 20.0294 36.4955 20.1151C37.2265 20.1836 37.7078 19.4794 37.8571 19.1187L35.4204 18.8903C34.2021 18.7761 33.3958 17.8576 31.3354 17.1024Z" fill="#03ABE0"/>
<path d="M32.7808 13.3654L31.0393 12.3013" stroke="#9E9E9E" stroke-width="0.5" stroke-linecap="round" stroke-linejoin="round"/>
<path d="M28.3094 17.1461L31.3647 18.5851C31.3647 18.5851 32.155 18.7062 33.3527 19.2613C34.5504 19.8163 37.2865 21.1905 37.2865 21.1905L37.8861 20.7657L38.5574 19.6528L39.2288 18.54L39.3104 17.815C39.3104 17.815 38.6901 17.338 37.5872 16.5681" stroke="#9E9E9E" stroke-linecap="round" stroke-linejoin="round"/>
<path d="M32.4179 13.5744C32.4179 13.5744 31.5952 13.1777 31.3777 13.0185C31.1603 12.8593 31.0056 12.3282 31.0056 12.3282" stroke="#9E9E9E" stroke-width="0.5" stroke-linecap="round" stroke-linejoin="round"/>
<path d="M28.3145 17.1699C28.3499 17.177 29.0827 17.0918 29.433 17.3185C29.8188 17.5525 31.5887 18.3393 31.5887 18.3393C31.5887 18.3393 32.6422 18.5917 34.4986 19.474C35.8983 20.108 36.2132 20.3276 36.2132 20.3276C36.2132 20.3276 36.9023 20.545 37.7683 19.1237C38.6343 17.7023 37.9493 17.3298 37.9493 17.3298C37.9493 17.3298 36.0615 16.2854 35.3352 15.7878" stroke="#9E9E9E" stroke-width="0.5" stroke-linecap="round" stroke-linejoin="round"/>
<path d="M30.0478 14.8794C30.8286 13.5829 31.277 12.4294 31.0494 12.3029C30.8219 12.1765 30.0045 13.1249 29.2237 14.4214C28.443 15.7178 27.9945 16.8713 28.2221 16.9978C28.4497 17.1243 29.2671 16.1759 30.0478 14.8794Z" stroke="#9E9E9E" stroke-width="0.5" stroke-linecap="round" stroke-linejoin="round"/>
<path d="M31.2938 12.5569C31.505 12.6738 31.0696 13.7988 30.3165 15.0796C29.5635 16.3603 28.795 17.3067 28.5603 17.1482C28.3491 17.0313 28.7609 15.8646 29.5048 14.6188C30.2578 13.3381 31.0591 12.3984 31.2938 12.5569Z" stroke="#9E9E9E" stroke-width="0.5" stroke-linecap="round" stroke-linejoin="round"/>
<path d="M7.73889 38.8035C7.82938 37.561 7.94626 36.3612 8.07202 35.1261C8.22471 33.637 8.38628 32.1126 8.90048 30.6633C9.32611 29.4177 9.91917 28.2449 10.5827 27.087C11.4321 25.6346 12.4488 24.255 13.5625 22.933C14.0928 22.3035 14.4557 21.6013 14.6601 20.7911C14.9444 19.664 14.5578 18.8396 13.5269 18.3607C12.7603 18.0122 12.0997 17.5378 11.5452 16.9375C11.4836 16.8873 11.3867 16.8296 11.3425 16.8573C10.6542 17.0821 10.0276 17.3572 9.55027 17.9237C9.01995 18.5532 8.93917 19.3154 9.05246 20.0446C9.1827 21.1485 9.4365 22.2045 9.61089 23.2806C9.82887 24.6259 9.89692 25.9763 9.66509 27.3373C9.42466 28.5851 8.98154 29.7527 8.30046 30.8326C8.16775 31.0642 7.99977 31.2883 7.83179 31.5123C7.93089 30.383 8.20631 29.291 7.92614 28.1924C7.81539 30.8409 6.84974 33.1963 5.26712 35.3464C5.37429 34.6269 5.7194 33.9952 5.61499 33.2307C5.47174 34.3879 4.61517 34.9851 3.73223 35.5397C3.94463 35.1395 4.22756 34.7543 4.33417 34.3316C4.58266 33.4938 4.79589 32.6484 4.94748 31.7529C5.17958 30.2435 4.95326 28.6367 4.76221 27.0374C4.57143 25.2898 4.49532 23.5294 4.64856 21.7435C4.78348 20.3248 5.02418 18.9286 5.6264 17.5722C6.45879 15.7451 7.80153 14.546 10.068 14.5453C10.0506 14.4674 10.0419 14.3542 10.0245 14.2763C9.63904 12.8583 9.70343 11.4247 10.0677 9.98054C10.7249 7.52243 12.1923 5.68186 14.3819 4.3659C15.8298 3.4861 17.4005 3.0035 19.0407 3.12943C19.8431 3.18865 20.6283 3.02154 21.4132 3.00282C22.4628 2.96612 23.5387 2.97213 24.5436 3.25993C25.6278 3.5275 26.5616 4.09708 27.0447 5.12756C27.4576 5.99465 27.456 6.88498 27.2866 7.85099C27.2419 8.17549 27.1267 8.485 27.0379 8.83723C26.7388 8.40256 26.4661 8.0106 26.1582 7.61115C26.123 7.60365 26.1141 7.63888 26.0788 7.63138C26.2629 8.22718 26.65 8.75479 26.5781 9.48173C26.3845 9.21793 26.2526 9.00434 26.1208 8.79075C26.1549 9.39179 26.1891 9.99283 26.2585 10.6014C26.2757 10.8277 26.3898 11.1117 26.5659 11.2976C27.094 11.8552 27.6751 12.3498 28.2474 12.8797C28.67 13.2664 28.6517 13.6336 28.2099 14.0593C28.0686 14.1777 27.9362 14.2609 27.7948 14.3793C27.3798 14.6993 27.3525 15.1017 27.8018 15.3828C27.934 15.448 28.0925 15.5559 28.11 15.6338C28.092 15.8527 28.0034 16.0565 27.9501 16.2678C27.9234 16.3735 27.791 16.4567 27.6938 16.5474C27.7555 16.5976 27.8171 16.6478 27.8435 16.6905C27.9315 16.7834 28.0373 16.8059 28.1961 16.7655M37.5721 20.8365C37.4833 21.1888 38.0775 24.1355 38.3935 24.9449C39.1046 26.6918 39.8599 28.4111 40.5005 30.143C40.9217 31.2716 41.2193 32.4483 41.1025 33.6481C41.0392 34.4882 40.7996 35.2908 40.6305 36.1085C40.5949 36.2493 36.4026 37.9932 32.5312 37.8755C30.2294 37.8687 27.0636 37.7524 24.8332 37.3155M28.1694 16.8711C28.2125 17.4369 28.2036 17.4722 27.771 17.7142C27.6475 17.7622 27.5414 17.8881 27.4795 17.9863C27.2937 18.2808 27.3726 18.5573 27.372 18.8541C27.4068 19.1584 27.4326 19.4979 27.3704 19.7444C27.1222 20.4339 26.5483 20.7944 25.7458 20.7351C25.0139 20.6909 24.2645 20.5687 23.5062 20.4818C23.0742 20.4271 23.0478 20.3844 22.8354 20.7845C22.4548 21.5572 22.0652 22.3651 21.6493 23.1302C21.3483 23.7343 20.9768 24.3233 20.9227 24.9798C20.8688 25.4879 20.9738 25.9556 21.3789 26.2643C22.2419 26.9673 23.149 27.6426 24.012 28.3456C24.9719 29.1062 25.9492 29.9449 27.0771 30.4815C27.9406 30.8877 28.8219 31.2235 29.7121 31.524C31.0429 31.9924 32.4181 32.2847 33.847 32.2173C34.2968 32.2016 34.7202 32.1431 35.1436 32.0847C35.1181 31.5968 35.0748 31.1794 35.0403 30.7267C34.8681 28.4634 35.0224 21.3708 32.6864 20.763C32.0959 20.6004 31.1191 19.465 29.9915 18.78C29.736 18.6143 28.4671 18.0477 28.6617 17.718C28.883 17.2826 29.3681 17.2743 29.9056 17.4999" stroke="#9E9E9E" stroke-linecap="round" stroke-linejoin="round"/>
<path d="M23.724 33.3454C24.257 34.9407 25.2959 38.3844 25.187 39.3971" stroke="#9E9E9E"/>
<path d="M17.7008 13.4035C17.5686 13.1896 17.3302 13.1018 17.0826 13.1978C16.7201 13.3066 16.5691 13.7577 16.5597 14.0902C16.5762 14.7627 16.9374 15.397 17.52 15.7438C17.7495 15.8669 17.9879 15.9547 18.1732 16.1056C18.2968 16.2062 18.4025 16.3773 18.5614 16.4854C18.8174 16.6513 19.2063 16.5853 19.4188 16.3332" stroke="#9E9E9E" stroke-linecap="round" stroke-linejoin="round"/>
<path d="M16.7493 15.697C16.5988 17.3089 15.8619 18.8666 14.7247 20.045" stroke="#9E9E9E" stroke-linecap="round" stroke-linejoin="round"/>
<path d="M17.724 13.2074C17.8459 13.6028 18.3103 13.6646 18.6342 13.8444C18.6171 13.6191 18.5912 13.4289 18.6091 13.2111C18.7752 13.4311 18.9763 13.6586 19.2213 13.8585C19.1868 13.5556 19.1173 13.2453 19.0829 12.9425C19.188 12.9648 19.2931 12.9872 19.3982 13.0096C20.101 12.1248 20.6814 11.14 21.0603 10.0755C21.1925 9.69729 21.3335 9.28401 21.6321 8.97813C21.8341 8.76253 22.1323 8.60435 22.3867 8.47377C23.0972 8.14472 23.8516 7.78806 24.5962 7.90956" stroke="#9E9E9E" stroke-linecap="round" stroke-linejoin="round"/>
<path d="M25.1081 10.6795C24.0318 10.6735 22.9365 11.3316 22.4319 12.3009" stroke="#9E9E9E" stroke-linecap="round" stroke-linejoin="round"/>
<path d="M9.52811 13.908C9.57056 14.618 9.86676 15.3451 10.3208 15.8845" stroke="#9E9E9E" stroke-linecap="round" stroke-linejoin="round"/>
<path d="M12.5615 23.756C14.9748 25.3725 17.9721 25.9914 20.8695 25.4624" stroke="#9E9E9E" stroke-width="0.5" stroke-linecap="round" stroke-linejoin="round"/>
<path d="M12.175 24.8042C14.3169 26.4125 18.4512 27.3118 21.3017 26.0409" stroke="#9E9E9E" stroke-width="0.5" stroke-linecap="round" stroke-linejoin="round"/>
<path d="M25.2091 11.745C24.8478 12.1491 24.3986 12.4606 23.8968 12.687" stroke="#9E9E9E" stroke-linecap="round" stroke-linejoin="round"/>
<path d="M33.8476 13.8844C33.7711 13.7543 33.6946 13.6242 33.5926 13.4507C33.5671 13.4073 33.5671 13.4073 33.5416 13.364C33.5064 13.3569 33.4809 13.3135 33.4456 13.3064C33.3144 13.2417 33.1383 13.2061 32.9779 13.2502C32.8528 13.3013 32.7532 13.3959 32.6183 13.4833C32.5284 13.5416 32.4895 13.6866 32.5757 13.7804C32.662 13.8743 32.7931 13.939 32.8891 13.9966C33.0907 14.0755 33.3665 14.0165 33.5208 13.8566" stroke="#9E9E9E" stroke-linecap="round" stroke-linejoin="round"/>
<path d="M36.5535 15.8201C36.5023 15.7321 36.4609 15.6074 36.4451 15.5266C36.4195 15.4827 36.3939 15.4387 36.3683 15.3947C36.3072 15.3436 36.2364 15.3292 36.1655 15.3148C35.8466 15.2501 35.4923 15.1783 35.1735 15.1136C35.138 15.1065 35.1026 15.0993 35.0672 15.0921C35.0318 15.0849 34.9865 15.1145 34.9767 15.1513C34.7051 15.3289 34.3726 15.4554 34.0597 15.5083C34.0242 15.5011 33.979 15.5307 33.9691 15.5675C33.9593 15.6043 33.9593 15.6043 33.9849 15.6483C34.0165 15.8098 34.0933 15.9417 34.2154 16.044C34.3985 16.1975 34.6209 16.2038 34.8531 16.1734C35.0853 16.1429 35.3018 16.0317 35.4828 15.9132" stroke="#9E9E9E" stroke-linecap="round" stroke-linejoin="round"/>
<path d="M35.5576 14.9876C35.3747 14.8348 35.4629 14.5051 35.3154 14.3594C35.2289 14.2646 35.1228 14.2431 35.0167 14.2216C34.663 14.15 34.3447 14.0856 34.0008 13.9773L33.9654 13.9701C33.93 13.963 33.8848 13.9925 33.875 14.0291C33.6296 14.2497 33.394 14.4337 33.0974 14.5667L33.0522 14.5962C33.0522 14.5962 33.0424 14.6328 33.0326 14.6694C33.0544 14.8669 33.192 15.0492 33.3944 15.1288C33.5969 15.2084 33.7933 15.171 34.0094 15.0603C34.2156 14.9862 34.3963 14.8683 34.577 14.7504" stroke="#9E9E9E" stroke-linecap="round" stroke-linejoin="round"/>
<path d="M38.3451 17.3429C38.4705 17.2915 38.5546 17.1165 38.5231 16.9566C38.4818 16.8331 38.37 16.6953 38.2739 16.6375C38.1778 16.5797 38.066 16.4419 37.9894 16.3113C37.9737 16.2313 37.9481 16.1878 37.8873 16.1371C37.7755 15.9994 37.5796 16.0365 37.419 16.0808C37.223 16.118 37.0369 16.1188 36.8605 16.0831C36.7194 16.0546 36.6 16.2224 36.6315 16.3824C36.7081 16.513 36.7846 16.6437 36.9062 16.745C37.1239 16.9042 37.4159 16.9248 37.7019 16.829" stroke="#9E9E9E" stroke-linecap="round" stroke-linejoin="round"/>
</svg>
