<svg width="271" height="108" viewBox="0 0 271 108" fill="none" xmlns="http://www.w3.org/2000/svg">
<path d="M12.2061 55.7656V97H3.70996V55.7656H12.2061ZM36.5049 55.7656L20.7021 79.9795H10.3086L9.23242 72.418H16.1709L26.1963 55.7656H36.5049ZM27.7539 97L16.1992 78.5635L22.0898 72.5029L37.8359 97H27.7539ZM57.207 90.0898V76.4395C57.207 75.4577 57.0465 74.6175 56.7256 73.9189C56.4046 73.2015 55.9043 72.6445 55.2246 72.248C54.5638 71.8516 53.7048 71.6533 52.6475 71.6533C51.7412 71.6533 50.9577 71.8138 50.2969 72.1348C49.6361 72.4368 49.1263 72.8805 48.7676 73.4658C48.4089 74.0322 48.2295 74.7025 48.2295 75.4766H40.0732C40.0732 74.1738 40.3753 72.9372 40.9795 71.7666C41.5837 70.596 42.4616 69.5671 43.6133 68.6797C44.765 67.7734 46.1338 67.0654 47.7197 66.5557C49.3245 66.0459 51.1182 65.791 53.1006 65.791C55.4795 65.791 57.5941 66.1875 59.4443 66.9805C61.2946 67.7734 62.7484 68.9629 63.8057 70.5488C64.8818 72.1348 65.4199 74.1172 65.4199 76.4961V89.6084C65.4199 91.2887 65.5238 92.667 65.7314 93.7432C65.9391 94.8005 66.2412 95.7256 66.6377 96.5186V97H58.3965C58 96.1693 57.6979 95.1309 57.4902 93.8848C57.3014 92.6198 57.207 91.3548 57.207 90.0898ZM58.2832 78.3369L58.3398 82.9531H53.7803C52.7041 82.9531 51.7695 83.0758 50.9766 83.3213C50.1836 83.5667 49.5322 83.916 49.0225 84.3691C48.5127 84.8034 48.1351 85.3132 47.8896 85.8984C47.6631 86.4837 47.5498 87.1257 47.5498 87.8242C47.5498 88.5228 47.7103 89.1553 48.0312 89.7217C48.3522 90.2692 48.8148 90.7035 49.4189 91.0244C50.0231 91.3265 50.7311 91.4775 51.543 91.4775C52.7702 91.4775 53.8369 91.2321 54.7432 90.7412C55.6494 90.2503 56.348 89.6462 56.8389 88.9287C57.3486 88.2113 57.613 87.5316 57.6318 86.8896L59.7842 90.3447C59.4821 91.1188 59.0667 91.9212 58.5381 92.752C58.0283 93.5827 57.377 94.3662 56.584 95.1025C55.791 95.82 54.8376 96.4147 53.7236 96.8867C52.6097 97.3398 51.2881 97.5664 49.7588 97.5664C47.8141 97.5664 46.0488 97.1794 44.4629 96.4053C42.8958 95.6123 41.6497 94.5267 40.7246 93.1484C39.8184 91.7513 39.3652 90.1654 39.3652 88.3906C39.3652 86.7858 39.6673 85.3604 40.2715 84.1143C40.8757 82.8682 41.763 81.8203 42.9336 80.9707C44.123 80.1022 45.6051 79.4508 47.3799 79.0166C49.1546 78.5635 51.2126 78.3369 53.5537 78.3369H58.2832ZM86.8584 66.3574V97H78.6738V66.3574H86.8584ZM96.7139 66.3574V72.6729H68.96V66.3574H96.7139ZM116.963 90.0898V76.4395C116.963 75.4577 116.802 74.6175 116.481 73.9189C116.16 73.2015 115.66 72.6445 114.98 72.248C114.32 71.8516 113.461 71.6533 112.403 71.6533C111.497 71.6533 110.714 71.8138 110.053 72.1348C109.392 72.4368 108.882 72.8805 108.523 73.4658C108.165 74.0322 107.985 74.7025 107.985 75.4766H99.8291C99.8291 74.1738 100.131 72.9372 100.735 71.7666C101.34 70.596 102.217 69.5671 103.369 68.6797C104.521 67.7734 105.89 67.0654 107.476 66.5557C109.08 66.0459 110.874 65.791 112.856 65.791C115.235 65.791 117.35 66.1875 119.2 66.9805C121.05 67.7734 122.504 68.9629 123.562 70.5488C124.638 72.1348 125.176 74.1172 125.176 76.4961V89.6084C125.176 91.2887 125.28 92.667 125.487 93.7432C125.695 94.8005 125.997 95.7256 126.394 96.5186V97H118.152C117.756 96.1693 117.454 95.1309 117.246 93.8848C117.057 92.6198 116.963 91.3548 116.963 90.0898ZM118.039 78.3369L118.096 82.9531H113.536C112.46 82.9531 111.525 83.0758 110.732 83.3213C109.939 83.5667 109.288 83.916 108.778 84.3691C108.269 84.8034 107.891 85.3132 107.646 85.8984C107.419 86.4837 107.306 87.1257 107.306 87.8242C107.306 88.5228 107.466 89.1553 107.787 89.7217C108.108 90.2692 108.571 90.7035 109.175 91.0244C109.779 91.3265 110.487 91.4775 111.299 91.4775C112.526 91.4775 113.593 91.2321 114.499 90.7412C115.405 90.2503 116.104 89.6462 116.595 88.9287C117.104 88.2113 117.369 87.5316 117.388 86.8896L119.54 90.3447C119.238 91.1188 118.823 91.9212 118.294 92.752C117.784 93.5827 117.133 94.3662 116.34 95.1025C115.547 95.82 114.593 96.4147 113.479 96.8867C112.366 97.3398 111.044 97.5664 109.515 97.5664C107.57 97.5664 105.805 97.1794 104.219 96.4053C102.652 95.6123 101.406 94.5267 100.48 93.1484C99.5742 91.7513 99.1211 90.1654 99.1211 88.3906C99.1211 86.7858 99.4232 85.3604 100.027 84.1143C100.632 82.8682 101.519 81.8203 102.689 80.9707C103.879 80.1022 105.361 79.4508 107.136 79.0166C108.91 78.5635 110.968 78.3369 113.31 78.3369H118.039ZM152.08 66.3574V72.7578H137.014V66.3574H152.08ZM158.056 66.3574V97H149.899V66.3574H158.056ZM134.975 66.3574H142.989L142.168 81.8203C142.055 84.0293 141.819 85.974 141.46 87.6543C141.101 89.3346 140.62 90.7695 140.016 91.959C139.43 93.1484 138.722 94.1208 137.892 94.876C137.08 95.6123 136.126 96.1504 135.031 96.4902C133.955 96.8301 132.766 97 131.463 97H128.971L128.886 90.5713L129.934 90.458C130.538 90.4014 131.066 90.2314 131.52 89.9482C131.992 89.6462 132.388 89.2214 132.709 88.6738C133.049 88.1074 133.332 87.3994 133.559 86.5498C133.785 85.6813 133.965 84.6618 134.097 83.4912C134.248 82.3206 134.352 80.9707 134.408 79.4414L134.975 66.3574ZM163.068 81.9902V81.3955C163.068 79.1488 163.389 77.0814 164.031 75.1934C164.673 73.2865 165.608 71.6344 166.835 70.2373C168.062 68.8402 169.573 67.7546 171.366 66.9805C173.16 66.1875 175.218 65.791 177.54 65.791C179.862 65.791 181.93 66.1875 183.742 66.9805C185.555 67.7546 187.075 68.8402 188.302 70.2373C189.548 71.6344 190.492 73.2865 191.134 75.1934C191.776 77.0814 192.097 79.1488 192.097 81.3955V81.9902C192.097 84.2181 191.776 86.2855 191.134 88.1924C190.492 90.0804 189.548 91.7324 188.302 93.1484C187.075 94.5456 185.564 95.6312 183.771 96.4053C181.977 97.1794 179.919 97.5664 177.597 97.5664C175.274 97.5664 173.207 97.1794 171.395 96.4053C169.601 95.6312 168.081 94.5456 166.835 93.1484C165.608 91.7324 164.673 90.0804 164.031 88.1924C163.389 86.2855 163.068 84.2181 163.068 81.9902ZM171.225 81.3955V81.9902C171.225 83.2741 171.338 84.473 171.564 85.5869C171.791 86.7008 172.15 87.6826 172.641 88.5322C173.15 89.363 173.811 90.0143 174.623 90.4863C175.435 90.9583 176.426 91.1943 177.597 91.1943C178.729 91.1943 179.702 90.9583 180.514 90.4863C181.326 90.0143 181.977 89.363 182.468 88.5322C182.959 87.6826 183.317 86.7008 183.544 85.5869C183.789 84.473 183.912 83.2741 183.912 81.9902V81.3955C183.912 80.1494 183.789 78.9788 183.544 77.8838C183.317 76.7699 182.949 75.7881 182.439 74.9385C181.949 74.07 181.297 73.3903 180.485 72.8994C179.674 72.4085 178.692 72.1631 177.54 72.1631C176.388 72.1631 175.407 72.4085 174.595 72.8994C173.802 73.3903 173.15 74.07 172.641 74.9385C172.15 75.7881 171.791 76.7699 171.564 77.8838C171.338 78.9788 171.225 80.1494 171.225 81.3955ZM217.953 66.3574V72.7578H205.209V97H197.053V66.3574H217.953Z" fill="#191919"/>
<path d="M21.5 16.5355L17.9645 13L21.5 9.46445" stroke="#779CBE" stroke-opacity="0.89" stroke-width="1.5"/>
<path d="M37.3636 8.04688V9.12695H32.5648V18H31.2523V8.04688H37.3636ZM42.0804 10.6035V11.6494H38.5052V10.6035H42.0804ZM43.1947 10.6035V18H41.9301V10.6035H43.1947ZM38.1976 10.6035H39.4691L39.2777 14.1719C39.2458 14.7233 39.1934 15.2109 39.1205 15.6348C39.0521 16.054 38.9564 16.4141 38.8334 16.7148C38.7149 17.0156 38.5645 17.2617 38.3822 17.4531C38.2045 17.64 37.9903 17.779 37.7396 17.8701C37.489 17.9567 37.1996 18 36.8715 18H36.475V16.8857L36.7484 16.8652C36.9444 16.8516 37.1107 16.806 37.2474 16.7285C37.3887 16.651 37.5072 16.5371 37.6029 16.3867C37.6986 16.2318 37.7761 16.0335 37.8353 15.792C37.8991 15.5505 37.947 15.2633 37.9789 14.9307C38.0153 14.598 38.0427 14.2106 38.0609 13.7686L38.1976 10.6035ZM49.5931 16.7354V12.9277C49.5931 12.6361 49.5339 12.3831 49.4154 12.1689C49.3015 11.9502 49.1283 11.7816 48.8959 11.6631C48.6635 11.5446 48.3763 11.4854 48.0345 11.4854C47.7155 11.4854 47.4353 11.54 47.1937 11.6494C46.9567 11.7588 46.7699 11.9023 46.6332 12.0801C46.501 12.2578 46.4349 12.4492 46.4349 12.6543H45.1703C45.1703 12.39 45.2386 12.1279 45.3754 11.8682C45.5121 11.6084 45.708 11.3737 45.9633 11.1641C46.223 10.9499 46.5329 10.7812 46.8929 10.6582C47.2575 10.5306 47.6631 10.4668 48.1097 10.4668C48.6475 10.4668 49.1215 10.5579 49.5316 10.7402C49.9463 10.9225 50.2699 11.1982 50.5023 11.5674C50.7393 11.932 50.8578 12.39 50.8578 12.9414V16.3867C50.8578 16.6328 50.8783 16.8949 50.9193 17.1729C50.9649 17.4508 51.031 17.6901 51.1176 17.8906V18H49.7982C49.7344 17.8542 49.6843 17.6605 49.6478 17.4189C49.6114 17.1729 49.5931 16.945 49.5931 16.7354ZM49.8119 13.5156L49.8256 14.4043H48.5472C48.1872 14.4043 47.8659 14.4339 47.5834 14.4932C47.3008 14.5479 47.0638 14.6322 46.8724 14.7461C46.681 14.86 46.5352 15.0036 46.4349 15.1768C46.3347 15.3454 46.2845 15.5436 46.2845 15.7715C46.2845 16.0039 46.337 16.2158 46.4418 16.4072C46.5466 16.5986 46.7038 16.7513 46.9135 16.8652C47.1276 16.9746 47.3897 17.0293 47.6996 17.0293C48.087 17.0293 48.4288 16.9473 48.725 16.7832C49.0212 16.6191 49.2559 16.4186 49.4291 16.1816C49.6068 15.9447 49.7025 15.7145 49.7162 15.4912L50.2562 16.0996C50.2243 16.291 50.1377 16.5029 49.9965 16.7354C49.8552 16.9678 49.6661 17.1911 49.4291 17.4053C49.1967 17.6149 48.9187 17.7904 48.5951 17.9316C48.2761 18.0684 47.9161 18.1367 47.515 18.1367C47.0137 18.1367 46.5739 18.0387 46.1957 17.8428C45.822 17.6468 45.5303 17.3848 45.3207 17.0566C45.1156 16.724 45.0131 16.3525 45.0131 15.9424C45.0131 15.5459 45.0905 15.1973 45.2455 14.8965C45.4004 14.5911 45.6237 14.3382 45.9154 14.1377C46.2071 13.9326 46.558 13.7777 46.9681 13.6729C47.3783 13.568 47.8363 13.5156 48.3422 13.5156H49.8119ZM56.3197 14.7461H53.8929L53.8793 13.7344H55.8617C56.2536 13.7344 56.5795 13.6956 56.8392 13.6182C57.1036 13.5407 57.3018 13.4245 57.434 13.2695C57.5661 13.1146 57.6322 12.9232 57.6322 12.6953C57.6322 12.5176 57.5935 12.3626 57.516 12.2305C57.4431 12.0938 57.3314 11.9821 57.181 11.8955C57.0306 11.8044 56.8438 11.7383 56.6205 11.6973C56.4017 11.6517 56.1442 11.6289 55.848 11.6289H54.2279V18H52.9633V10.6035H55.848C56.3174 10.6035 56.739 10.6445 57.1127 10.7266C57.4909 10.8086 57.8122 10.9339 58.0765 11.1025C58.3454 11.2666 58.5505 11.4762 58.6918 11.7314C58.833 11.9867 58.9037 12.2874 58.9037 12.6338C58.9037 12.8571 58.8581 13.069 58.767 13.2695C58.6758 13.4701 58.5414 13.6478 58.3636 13.8027C58.1859 13.9577 57.9672 14.0853 57.7074 14.1855C57.4476 14.2812 57.1491 14.3428 56.8119 14.3701L56.3197 14.7461ZM56.3197 18H53.4349L54.0638 16.9746H56.3197C56.6706 16.9746 56.9623 16.9313 57.1947 16.8447C57.4271 16.7536 57.6003 16.626 57.7142 16.4619C57.8327 16.2933 57.892 16.0928 57.892 15.8604C57.892 15.6279 57.8327 15.4297 57.7142 15.2656C57.6003 15.097 57.4271 14.9694 57.1947 14.8828C56.9623 14.7917 56.6706 14.7461 56.3197 14.7461H54.3988L54.4125 13.7344H56.8119L57.2699 14.1172C57.6755 14.1491 58.0196 14.2493 58.3021 14.418C58.5847 14.5866 58.7989 14.8008 58.9447 15.0605C59.0905 15.3158 59.1635 15.5938 59.1635 15.8945C59.1635 16.2409 59.0974 16.5462 58.9652 16.8105C58.8376 17.0749 58.6508 17.2959 58.4047 17.4736C58.1586 17.6468 57.8601 17.779 57.5092 17.8701C57.1582 17.9567 56.7618 18 56.3197 18ZM65.8763 13.8096V14.835H61.9662V13.8096H65.8763ZM62.2328 10.6035V18H60.9681V10.6035H62.2328ZM66.9017 10.6035V18H65.6302V10.6035H66.9017ZM73.3002 16.7354V12.9277C73.3002 12.6361 73.2409 12.3831 73.1224 12.1689C73.0085 11.9502 72.8353 11.7816 72.6029 11.6631C72.3705 11.5446 72.0834 11.4854 71.7416 11.4854C71.4226 11.4854 71.1423 11.54 70.9008 11.6494C70.6638 11.7588 70.4769 11.9023 70.3402 12.0801C70.208 12.2578 70.142 12.4492 70.142 12.6543H68.8773C68.8773 12.39 68.9457 12.1279 69.0824 11.8682C69.2191 11.6084 69.4151 11.3737 69.6703 11.1641C69.9301 10.9499 70.2399 10.7812 70.6 10.6582C70.9646 10.5306 71.3702 10.4668 71.8168 10.4668C72.3545 10.4668 72.8285 10.5579 73.2386 10.7402C73.6534 10.9225 73.9769 11.1982 74.2094 11.5674C74.4463 11.932 74.5648 12.39 74.5648 12.9414V16.3867C74.5648 16.6328 74.5853 16.8949 74.6263 17.1729C74.6719 17.4508 74.738 17.6901 74.8246 17.8906V18H73.5052C73.4414 17.8542 73.3913 17.6605 73.3549 17.4189C73.3184 17.1729 73.3002 16.945 73.3002 16.7354ZM73.5189 13.5156L73.5326 14.4043H72.2543C71.8942 14.4043 71.573 14.4339 71.2904 14.4932C71.0079 14.5479 70.7709 14.6322 70.5795 14.7461C70.3881 14.86 70.2422 15.0036 70.142 15.1768C70.0417 15.3454 69.9916 15.5436 69.9916 15.7715C69.9916 16.0039 70.044 16.2158 70.1488 16.4072C70.2536 16.5986 70.4108 16.7513 70.6205 16.8652C70.8347 16.9746 71.0967 17.0293 71.4066 17.0293C71.794 17.0293 72.1358 16.9473 72.432 16.7832C72.7282 16.6191 72.9629 16.4186 73.1361 16.1816C73.3138 15.9447 73.4095 15.7145 73.4232 15.4912L73.9633 16.0996C73.9314 16.291 73.8448 16.5029 73.7035 16.7354C73.5622 16.9678 73.3731 17.1911 73.1361 17.4053C72.9037 17.6149 72.6257 17.7904 72.3021 17.9316C71.9831 18.0684 71.6231 18.1367 71.222 18.1367C70.7207 18.1367 70.281 18.0387 69.9027 17.8428C69.529 17.6468 69.2373 17.3848 69.0277 17.0566C68.8226 16.724 68.7201 16.3525 68.7201 15.9424C68.7201 15.5459 68.7976 15.1973 68.9525 14.8965C69.1075 14.5911 69.3308 14.3382 69.6224 14.1377C69.9141 13.9326 70.265 13.7777 70.6752 13.6729C71.0853 13.568 71.5433 13.5156 72.0492 13.5156H73.5189ZM78.0511 14.4727H79.4183L77.2787 18H75.9115L78.0511 14.4727ZM79.1107 10.6035H82.2006V18H80.9359V11.6289H79.1107C78.7507 11.6289 78.4567 11.6904 78.2289 11.8135C78.001 11.932 77.8347 12.0869 77.7299 12.2783C77.625 12.4697 77.5726 12.668 77.5726 12.873C77.5726 13.0736 77.6205 13.2673 77.7162 13.4541C77.8119 13.6364 77.9623 13.7868 78.1674 13.9053C78.3724 14.0238 78.6368 14.083 78.9603 14.083H81.2777V15.1221H78.9603C78.5365 15.1221 78.1605 15.0651 77.8324 14.9512C77.5043 14.8372 77.2263 14.68 76.9984 14.4795C76.7705 14.2744 76.5974 14.0352 76.4789 13.7617C76.3604 13.4837 76.3011 13.1829 76.3011 12.8594C76.3011 12.5358 76.3627 12.2373 76.4857 11.9639C76.6133 11.6904 76.7956 11.4512 77.0326 11.2461C77.2741 11.041 77.5681 10.8838 77.9144 10.7744C78.2653 10.6605 78.6641 10.6035 79.1107 10.6035Z" fill="#044988" fill-opacity="0.57"/>
<rect x="1.5" y="0.5" width="99" height="25" stroke="#CCDDF0"/>
</svg>
