<svg width="129" height="55" viewBox="0 0 129 55" fill="none" xmlns="http://www.w3.org/2000/svg">
<path d="M99.5611 11.931C99.5611 12.816 99.5611 13.675 99.5611 14.612C100.056 14.0914 100.498 13.5969 100.967 13.1544C103.049 11.2022 105.912 10.7076 108.333 11.8269C109.712 12.4516 110.649 13.5188 111.404 14.8202C111.482 14.9764 111.587 15.1326 111.665 15.2888C112.159 14.7161 112.628 14.0914 113.122 13.5448C115.413 11.0981 118.823 10.5254 121.582 12.1653C123.248 13.1544 124.211 14.6901 124.835 16.4601C125.356 17.9697 125.512 19.5315 125.512 21.1193C125.538 27.132 125.564 33.1447 125.564 39.1574C125.564 41.0575 124.08 42.5151 122.18 42.5151C121.087 42.5151 119.994 42.5151 118.849 42.5151C118.849 42.3069 118.849 42.1507 118.849 41.9946C118.849 36.1901 118.875 30.3856 118.823 24.5811C118.823 23.1235 118.692 21.6659 118.458 20.2082C118.224 18.7246 117.001 17.9697 115.751 18.4383C115.231 18.6205 114.762 18.9849 114.372 19.3753C113.591 20.2082 113.252 21.2754 113.122 22.3947C112.94 23.9304 112.81 25.4661 112.784 27.0279C112.732 32.0254 112.758 36.997 112.758 41.9946C112.758 42.1507 112.758 42.3069 112.758 42.4891C110.519 42.4891 108.333 42.4891 106.068 42.4891C106.068 42.3069 106.068 42.1507 106.068 41.9685C106.068 36.1901 106.068 30.4116 106.068 24.6332C106.068 23.3838 105.964 22.1344 105.886 20.859C105.86 20.5206 105.782 20.2082 105.678 19.8959C105.183 18.3342 103.778 17.8136 102.346 18.6725C101.227 19.3493 100.628 20.3904 100.446 21.6138C100.212 23.1495 100.03 24.7373 100.004 26.299C99.9515 31.5309 99.9776 36.7367 99.9776 41.9685C99.9776 42.1247 99.9776 42.2809 99.9776 42.4891C97.713 42.4891 95.5266 42.4891 93.2881 42.4891C93.2881 32.3118 93.2881 22.1344 93.2881 11.931C95.3704 11.931 97.4267 11.931 99.5611 11.931Z" fill="#044988"/>
<path d="M0 28.2249C1.40557 28.0687 2.73305 27.8084 4.08656 27.7564C5.62227 27.6783 6.8977 28.7194 7.34019 30.2031C7.54842 30.9059 7.78269 31.6087 8.09503 32.2594C9.05811 34.3157 10.724 35.2527 12.9885 35.2007C16.4243 35.1226 18.6368 32.1553 17.7778 28.8236C17.4915 27.7303 16.7627 27.0015 15.7736 26.5851C14.1858 25.9083 12.546 25.3617 10.9582 24.711C9.73486 24.2164 8.53753 23.7479 7.36622 23.1492C4.55508 21.7437 2.73305 19.4531 1.82203 16.5118C0.676755 12.8678 0.83293 9.24972 2.47276 5.78786C4.16465 2.19585 7.13196 0.399846 11.0103 0.0614683C12.8844 -0.094706 14.7324 0.0354392 16.5545 0.582049C19.5218 1.49307 21.5 3.52333 22.7494 6.33447C23.7385 8.52091 24.0769 10.8635 24.1029 13.2322C24.1029 13.2842 24.0769 13.3103 24.0769 13.4144C21.7863 13.5445 19.4958 13.7007 17.2312 13.8308C17.049 12.9458 16.8929 12.0869 16.6846 11.254C16.6065 10.8896 16.4504 10.5512 16.2942 10.2128C15.7736 8.98943 14.8626 8.28665 13.5611 8.05239C12.3898 7.84415 11.2185 7.84415 10.0993 8.28665C8.90193 8.75517 8.04298 9.51001 7.8868 10.8896C7.73063 12.3211 8.17312 13.4925 9.47458 14.1692C10.75 14.8199 12.0775 15.3665 13.405 15.9132C15.0968 16.6159 16.8668 17.2146 18.5327 17.9955C21.6301 19.4531 23.5303 21.9779 24.3372 25.2316C25.3263 29.1619 25.1961 33.0663 23.5042 36.8145C21.9165 40.3544 19.1834 42.4368 15.3571 43.0354C13.3269 43.3478 11.3226 43.3478 9.3184 42.8793C6.74152 42.2806 4.6592 40.901 3.14952 38.7146C0.989104 35.5651 0.338378 31.9731 0 28.2249Z" fill="#044988"/>
<path d="M70.5387 11.9048C70.0702 13.7008 69.6277 15.4448 69.1592 17.1627C67.3892 23.9302 65.5932 30.7238 63.7972 37.4914C62.8861 40.9532 61.9491 44.4151 60.96 47.877C60.6737 48.8661 60.2312 49.8291 59.7627 50.7402C58.4352 53.2389 56.2227 54.3582 53.4636 54.4623C52.917 54.4883 52.3704 54.4883 51.8498 54.3842C50.3662 54.1239 49.299 52.9266 49.1688 51.4169C49.0387 49.8291 48.9085 48.2674 48.7784 46.6015C49.0127 46.6536 49.2209 46.7057 49.4031 46.7577C50.236 46.8879 51.095 47.0701 51.9279 47.1221C52.865 47.1742 53.6198 46.7317 54.1144 45.9248C54.8171 44.7795 55.2076 43.5301 55.4679 42.2287C55.4939 42.0725 55.4679 41.8642 55.4158 41.7081C53.4116 34.3158 51.3813 26.8975 49.3771 19.5053C48.7263 17.0846 48.0756 14.6899 47.4249 12.2692C47.3989 12.1651 47.3728 12.061 47.3468 11.9308C49.7154 11.9308 52.0581 11.9308 54.4527 11.9308C55.9884 18.2299 57.4981 24.5289 59.0338 30.8279C59.0599 30.8279 59.0859 30.8279 59.1119 30.8279C59.19 30.4635 59.2941 30.1251 59.3722 29.7607C60.7518 23.9563 62.1053 18.1518 63.4588 12.3473C63.5369 12.0089 63.667 11.8788 64.0575 11.8788C66.0617 11.9048 68.0659 11.8788 70.0702 11.8788C70.2003 11.9048 70.3305 11.9048 70.5387 11.9048Z" fill="#044988"/>
<path d="M91.8826 11.9567C91.8826 22.134 91.8826 32.3114 91.8826 42.5148C91.5442 42.5148 91.2059 42.5148 90.8935 42.5148C90.0866 42.4887 89.2537 42.5408 88.4468 42.4627C87.0152 42.2805 86.0001 41.2914 85.6617 39.8858C85.6356 39.8077 85.6096 39.7036 85.6096 39.7036C84.8548 40.3804 84.152 41.1613 83.3451 41.7599C80.6641 43.7121 77.4105 43.66 74.9117 41.7079C73.376 40.4845 72.543 38.8186 72.1005 36.9446C71.7101 35.2527 71.58 33.5087 71.5539 31.7648C71.5279 25.3096 71.5539 18.8283 71.5539 12.3731C71.5539 12.243 71.5539 12.1389 71.5539 11.9827C73.7924 11.9827 75.9789 11.9827 78.2434 11.9827C78.2434 12.1389 78.2434 12.295 78.2434 12.4512C78.2434 17.5269 78.2174 22.6025 78.2434 27.6782C78.2434 29.5263 78.3735 31.3743 78.5037 33.2224C78.5297 33.743 78.7379 34.2636 78.9722 34.7581C79.9093 36.6843 82.1477 36.476 83.3711 35.3047C84.5164 34.2115 84.9849 32.8059 85.037 31.2702C85.1151 28.1467 85.1931 24.9972 85.2192 21.8737C85.2452 18.7502 85.2192 15.6268 85.2192 12.5033C85.2192 12.3471 85.2192 12.1909 85.2192 12.0087C87.4316 11.9567 89.6441 11.9567 91.8826 11.9567Z" fill="#044988"/>
<path d="M40.0066 11.9306C42.2451 11.9306 44.4575 11.9306 46.67 11.9306C46.67 22.1079 46.67 32.2853 46.67 42.5668C45.4206 42.5147 44.1712 42.5928 42.9478 42.3846C41.6464 42.1763 40.8135 41.2393 40.4751 39.9378C40.4491 39.8337 40.423 39.7296 40.397 39.6515C39.7463 40.2762 39.1476 40.953 38.4448 41.4996C36.0241 43.4517 32.8746 43.686 30.4018 42.1763C28.5538 41.031 27.5126 39.3392 26.966 37.2829C26.5235 35.6691 26.3673 34.0292 26.3673 32.3634C26.3413 25.6739 26.3413 18.9844 26.3413 12.295C26.3413 12.1648 26.3413 12.0607 26.3673 11.9045C28.5798 11.9045 30.7923 11.9045 33.0308 11.9045C33.0308 12.0867 33.0308 12.2429 33.0308 12.3991C33.0308 17.2405 33.0047 22.1079 33.0308 26.9493C33.0568 29.0056 33.1609 31.088 33.2911 33.1442C33.3171 33.7169 33.5774 34.3156 33.8377 34.8101C34.6185 36.2417 36.4146 36.528 37.7681 35.4869C38.9394 34.6019 39.5901 33.4045 39.6942 31.9729C39.8504 30.1769 39.9545 28.3809 39.9545 26.611C39.9805 21.8737 39.9545 17.1624 39.9545 12.4251C40.0066 12.295 40.0066 12.1388 40.0066 11.9306Z" fill="#044988"/>
<path d="M123.378 8.33876C123.378 6.82908 124.601 5.60571 126.163 5.60571C127.751 5.60571 129 6.80305 129 8.33876C129 9.84845 127.751 11.0718 126.215 11.0718C124.653 11.1239 123.378 9.87448 123.378 8.33876ZM126.215 10.4992C127.386 10.4992 128.271 9.58816 128.297 8.39082C128.323 7.16746 127.386 6.17835 126.215 6.17835C125.044 6.17835 124.107 7.1154 124.107 8.33876C124.08 9.5361 124.992 10.4992 126.215 10.4992Z" fill="#044988"/>
<path d="M125.174 6.95908C125.642 6.95908 126.059 6.93305 126.501 6.95908C126.892 6.98511 127.23 7.11525 127.386 7.53172C127.516 7.94818 127.256 8.20847 127.022 8.33862C127.204 8.80714 127.36 9.24963 127.542 9.69213C126.866 9.8483 126.84 9.82227 126.683 9.24963C126.553 8.70302 126.423 8.62494 125.772 8.70302C125.772 9.0414 125.772 9.37978 125.772 9.74419C125.564 9.74419 125.382 9.74419 125.174 9.74419C125.174 8.8592 125.174 7.97421 125.174 6.95908ZM125.694 8.2345C126.137 8.26053 126.501 8.31259 126.683 7.97421C126.735 7.8701 126.683 7.58378 126.605 7.55775C126.371 7.45363 126.007 7.34951 125.903 7.45363C125.746 7.6098 125.772 7.94818 125.694 8.2345Z" fill="#044988"/>
</svg>
