<svg width="40" height="38" viewBox="0 0 40 38" fill="none" xmlns="http://www.w3.org/2000/svg">
<path d="M13.4532 1C13.6519 1 13.7844 1.4968 13.7844 1.69553C13.7844 1.76177 13.7182 1.96049 13.7182 1.96049C13.7182 1.96049 13.7182 4.84196 13.7182 4.97444C13.7182 5.10692 13.3538 5.27252 13.3538 5.27252V6.16677C13.3538 6.16677 13.3538 6.43173 13.3538 6.92854C13.3538 7.16038 13.9831 7.09414 14.215 7.45846C14.5131 7.88902 14.4137 8.78327 14.5462 8.88263C14.8774 9.08136 18.8518 11.2673 19.8785 11.8303C20.9715 12.4596 21.2365 13.2876 21.2365 13.2876C21.2365 13.2876 21.7002 13.7844 21.7002 13.9832C21.7002 14.1819 21.7002 14.7449 21.7002 14.9105C21.7002 15.0761 21.5014 15.5398 21.5014 15.5398C21.5014 15.5398 21.5014 17.229 21.5014 17.4939C21.5014 17.7589 21.7002 17.9245 21.7002 17.9245C21.7002 17.9245 21.7002 18.8518 21.7002 18.9843C21.7002 19.1168 21.5677 19.2824 21.5677 19.2824C21.5677 19.2824 21.5677 19.4811 21.5677 19.713C21.5677 19.9779 21.0709 20.541 20.9384 20.6072C20.8059 20.6735 20.6734 21.2365 20.6734 21.2365C20.6734 21.2365 20.6734 27.7612 20.6734 28.4567C20.6734 29.1523 21.5014 29.8478 21.5014 29.914C21.5014 29.9803 21.5014 30.5433 21.5014 30.5433L21.7002 31.0401C21.7002 31.0401 21.7002 31.8019 21.7002 32.1C21.7002 32.3981 21.5014 32.663 21.5014 32.663V34.4184L21.7002 35.1139C21.7002 36.2069 20.9053 37.068 19.8785 37.068H2.82159C1.82798 37.068 0.999969 36.1738 0.999969 35.1139L1.19869 34.4184V32.663C1.19869 32.663 0.999969 32.4643 0.999969 32.1662C0.999969 31.8681 0.999969 31.1064 0.999969 31.1064L1.19869 30.6096C1.19869 30.6096 1.19869 30.1128 1.19869 29.9803C1.19869 29.914 2.0267 29.2185 2.0267 28.523C2.0267 27.8275 2.0267 21.3027 2.0267 21.3027C2.0267 21.3027 1.89422 20.7397 1.76174 20.7066C1.62926 20.6403 1.13245 20.0773 1.13245 19.8123C1.13245 19.5474 1.13245 19.3818 1.13245 19.3818C1.13245 19.3818 0.999969 19.2493 0.999969 19.0506C0.999969 18.8518 0.999969 17.9907 0.999969 17.9907C0.999969 17.9907 1.19869 17.792 1.19869 17.5602C1.19869 17.2952 1.19869 15.6061 1.19869 15.6061C1.19869 15.6061 0.999969 15.2417 0.999969 15.043C0.999969 14.8443 0.999969 14.2812 0.999969 14.1156C0.999969 13.9169 1.46365 13.4201 1.46365 13.4201C1.46365 13.4201 1.79486 12.5259 2.82159 11.9628C3.8152 11.3998 7.85587 9.18072 8.12084 9.01512C8.25332 8.91575 8.35268 7.88902 8.61764 7.45846C8.8826 7.06102 9.34629 7.25974 9.34629 7.06102C9.34629 6.63045 9.34629 6.29925 9.34629 6.29925V5.37188C9.34629 5.37188 8.98197 5.17316 8.98197 5.0738C8.98197 4.94132 8.98197 2.05985 8.98197 2.05985C8.98197 2.05985 8.8826 1.82801 8.8826 1.76177C8.8826 1.56305 9.04821 1.06624 9.21381 1.03312L13.4532 1Z" stroke="#979797" stroke-linecap="round" stroke-linejoin="round"/>
<path d="M5.93768 23.0978L8.59478 21.6364" stroke="#979797" stroke-linecap="round" stroke-linejoin="round"/>
<path d="M6.77905 24.6479L9.43615 23.1422" stroke="#979797" stroke-linecap="round" stroke-linejoin="round"/>
<path d="M4.87484 26.5964C5.92653 26.5964 6.77909 25.7438 6.77909 24.6921C6.77909 23.6404 5.92653 22.7878 4.87484 22.7878C3.82315 22.7878 2.97058 23.6404 2.97058 24.6921C2.97058 25.7438 3.82315 26.5964 4.87484 26.5964Z" fill="#03ABE0"/>
<path d="M10.5876 23.4079C11.6393 23.4079 12.4919 22.5553 12.4919 21.5036C12.4919 20.4519 11.6393 19.5994 10.5876 19.5994C9.53595 19.5994 8.68338 20.4519 8.68338 21.5036C8.68338 22.5553 9.53595 23.4079 10.5876 23.4079Z" fill="#03ABE0"/>
<path d="M16.1675 20.2416L17.806 21.4816" stroke="#979797" stroke-linecap="round" stroke-linejoin="round"/>
<path d="M15.459 21.2159L17.0975 22.4559" stroke="#979797" stroke-linecap="round" stroke-linejoin="round"/>
<path d="M14.8831 21.3045C15.5924 21.3045 16.1674 20.7295 16.1674 20.0202C16.1674 19.3109 15.5924 18.736 14.8831 18.736C14.1739 18.736 13.5989 19.3109 13.5989 20.0202C13.5989 20.7295 14.1739 21.3045 14.8831 21.3045Z" fill="#03ABE0"/>
<path d="M18.4264 23.9617C19.1356 23.9617 19.7106 23.3867 19.7106 22.6775C19.7106 21.9682 19.1356 21.3932 18.4264 21.3932C17.7171 21.3932 17.1421 21.9682 17.1421 22.6775C17.1421 23.3867 17.7171 23.9617 18.4264 23.9617Z" fill="#03ABE0"/>
<path d="M1.33102 13.42H21.2032" stroke="#979797" stroke-width="0.5" stroke-linecap="round" stroke-linejoin="round"/>
<path d="M9.11456 5.14001H13.4202" stroke="#979797" stroke-width="0.5" stroke-linecap="round" stroke-linejoin="round"/>
<path d="M8.94894 2.1593H13.5858" stroke="#979797" stroke-width="0.5" stroke-linecap="round" stroke-linejoin="round"/>
<path d="M8.94894 4.47778H13.5858" stroke="#979797" stroke-width="0.5" stroke-linecap="round" stroke-linejoin="round"/>
<path d="M8.94894 3.48413H13.5858" stroke="#979797" stroke-width="0.5" stroke-linecap="round" stroke-linejoin="round"/>
<path d="M9.28 5.80249H13.2544" stroke="#979797" stroke-width="0.5" stroke-linecap="round" stroke-linejoin="round"/>
<path d="M9.28 7.1272H13.2544" stroke="#979797" stroke-width="0.5" stroke-linecap="round" stroke-linejoin="round"/>
<path d="M8.28635 8.78345H14.5792" stroke="#979797" stroke-width="0.5" stroke-linecap="round" stroke-linejoin="round"/>
<path d="M1.33102 17.3945H21.5344" stroke="#979797" stroke-width="0.5" stroke-linecap="round" stroke-linejoin="round"/>
<path d="M1.33102 29.9802H21.5344" stroke="#979797" stroke-width="0.5" stroke-linecap="round" stroke-linejoin="round"/>
<path d="M2.15912 28.6555H20.5409" stroke="#979797" stroke-width="0.5" stroke-linecap="round" stroke-linejoin="round"/>
<path d="M1.33102 32.9612H21.5344" stroke="#979797" stroke-width="0.5" stroke-linecap="round" stroke-linejoin="round"/>
<path d="M1.33102 35.1583H21.5344" stroke="#979797" stroke-width="0.5" stroke-linecap="round" stroke-linejoin="round"/>
<path d="M39.0719 36.3395V37.1328H35.6514V36.4539L37.2922 34.5047C37.4634 34.2911 37.5987 34.1055 37.6981 33.9478C37.7976 33.7902 37.8681 33.6478 37.9097 33.5206C37.9537 33.3909 37.9757 33.2676 37.9757 33.1506C37.9757 32.9803 37.9479 32.8315 37.8924 32.7044C37.8369 32.5747 37.7559 32.4742 37.6496 32.403C37.5455 32.3318 37.4171 32.2962 37.2645 32.2962C37.0957 32.2962 36.9511 32.3395 36.8308 32.4259C36.7129 32.5098 36.6227 32.6268 36.5603 32.7768C36.5001 32.9269 36.4701 33.0985 36.4701 33.2918H35.5508C35.5508 32.9637 35.6201 32.6649 35.7589 32.3954C35.8977 32.1233 36.0966 31.9059 36.3556 31.7431C36.6146 31.5804 36.9222 31.499 37.2784 31.499C37.6253 31.499 37.919 31.5626 38.1595 31.6897C38.4 31.8143 38.5827 31.9923 38.7076 32.2238C38.8325 32.4552 38.895 32.7311 38.895 33.0515C38.895 33.2295 38.8684 33.4049 38.8152 33.5779C38.762 33.7508 38.6868 33.9224 38.5897 34.0928C38.4949 34.2606 38.3815 34.431 38.2497 34.6039C38.1179 34.7768 37.971 34.9536 37.8091 35.1341L36.8239 36.3395H39.0719Z" stroke="#979797" stroke-width="0.5" stroke-linecap="round" stroke-linejoin="round"/>
<path d="M34.9064 28.2542C34.9064 34.1399 32.7029 37.3871 28.9048 37.3871C25.5416 37.3871 23.2221 34.2268 23.1641 28.5151C23.1641 22.6875 25.6865 19.5272 29.1947 19.5272C32.8189 19.4982 34.9064 22.7454 34.9064 28.2542ZM25.5416 28.5151C25.5416 33.0091 26.9332 35.5605 29.0498 35.5605C31.4272 35.5605 32.558 32.7772 32.558 28.3702C32.558 24.1081 31.4852 21.3248 29.0498 21.3248C27.0202 21.3248 25.5416 23.8182 25.5416 28.5151Z" stroke="#979797" stroke-linecap="round" stroke-linejoin="round"/>
<path d="M30.0935 19.5853C33.7177 19.5853 35.8052 22.8326 35.8052 28.3413C35.8052 34.227 33.2828 37.3003 29.4846 37.3003M29.9196 21.3829C27.89 21.3829 26.4113 23.8764 26.4113 28.5733C26.4113 33.0673 27.6291 35.5317 29.7456 35.5317" stroke="#979797" stroke-width="0.5" stroke-linecap="round" stroke-linejoin="round"/>
</svg>
