<svg width="1439" height="80" viewBox="0 0 1439 80" fill="none" xmlns="http://www.w3.org/2000/svg">
<g filter="url(#filter0_b_1665_36476)">
<rect x="-1" width="1440" height="80" fill="white"/>
<rect x="-0.5" y="0.5" width="1439" height="79" stroke="#044988" stroke-opacity="0.11"/>
</g>
<circle cx="1204.82" cy="53.9421" r="2.73178" transform="rotate(-33.6628 1204.82 53.9421)" fill="#8BA8C2"/>
<path d="M1192.32 30.2734L1192.32 31.3683C1192.32 31.7628 1192.44 32.1485 1192.66 32.4769L1203.83 49.2546C1204.44 50.1739 1205.69 50.4229 1206.61 49.8106L1211.47 46.5707" stroke="#8BA8C2" stroke-width="2" stroke-linecap="round"/>
<path d="M1213.61 48.6226L1201.95 31.1164C1201.68 30.7063 1201.26 30.4115 1200.79 30.2884L1189.84 27.4656" stroke="#8BA8C2" stroke-width="2" stroke-linecap="round"/>
<path d="M1196.06 36.8015L1202.55 32.4751" stroke="#8BA8C2" stroke-linecap="round"/>
<path d="M1199.08 41.3486L1205.58 37.0222" stroke="#8BA8C2" stroke-linecap="round"/>
<path d="M1202.11 45.8956L1208.61 41.5692" stroke="#8BA8C2" stroke-linecap="round"/>
<rect x="1207.5" y="30.2755" width="22" height="17" rx="4.5" fill="#CBE5ED"/>
<path d="M1219.67 34.2208V42.7755H1218.12V36.0314L1216.06 36.7111V35.4572L1219.5 34.2208H1219.67Z" fill="#044988"/>
<rect x="1207.5" y="30.2755" width="22" height="17" rx="4.5" stroke="#044988"/>
<path d="M1273 26.7756H1303" stroke="#191919" stroke-width="2" stroke-linecap="round"/>
<path d="M1273 39.2756H1303" stroke="#191919" stroke-width="2" stroke-linecap="round"/>
<path d="M1273 51.7756H1303" stroke="#191919" stroke-width="2" stroke-linecap="round"/>
<path d="M487.63 37.7395C487.718 37.7384 487.79 37.8093 487.79 37.8971C487.79 37.9237 487.761 38.0035 487.761 38.0035C487.761 38.0035 487.761 38.6685 487.761 38.7217C487.761 38.7749 487.594 38.8547 487.594 38.8547V39.2271C487.594 39.2271 487.594 39.3335 487.594 39.5463C487.594 39.759 488.028 40.291 488.144 40.3708C488.289 40.4506 490.086 41.3816 490.55 41.621C491.042 41.8869 491.158 42.2327 491.158 42.2327C491.158 42.2327 491.361 42.4455 491.361 42.5253C491.361 42.6051 491.361 42.8445 491.361 42.9243C491.361 43.0041 491.274 43.1903 491.274 43.1903C491.274 43.1903 491.274 43.9084 491.274 44.0148C491.274 44.1212 491.361 44.201 491.361 44.201C491.361 44.201 491.361 44.6 491.361 44.6532C491.361 44.7064 491.303 44.7862 491.303 44.7862C491.303 44.7862 491.303 44.866 491.303 44.9724C491.303 45.0788 491.071 45.3182 491.013 45.3448C490.955 45.3714 490.897 45.6107 490.897 45.6107C490.897 45.6107 490.897 48.377 490.897 48.6696C490.897 48.9622 491.274 49.2548 491.274 49.2814C491.274 49.308 491.274 49.5473 491.274 49.5473L491.361 49.7601C491.361 49.7601 491.361 50.0793 491.361 50.2123C491.361 50.3453 491.274 50.4517 491.274 50.4517V51.1965L491.361 51.489C491.361 51.948 490.989 52.32 490.53 52.32H482.831C482.372 52.32 482 51.948 482 51.489L482.087 51.1965V50.4517C482.087 50.4517 482 50.3719 482 50.2389C482 50.1059 482 49.7867 482 49.7867L482.087 49.5739C482.087 49.5739 482.087 49.3612 482.087 49.308C482.087 49.2814 482.464 48.9888 482.464 48.6962C482.464 48.4036 482.464 45.6373 482.464 45.6373C482.464 45.6373 482.406 45.398 482.348 45.3714C482.29 45.3448 482.058 45.1054 482.058 44.999C482.058 44.8926 482.058 44.8128 482.058 44.8128C482.058 44.8128 482 44.7596 482 44.6798C482 44.6 482 44.2276 482 44.2276C482 44.2276 482.087 44.1478 482.087 44.0414C482.087 43.935 482.087 43.2169 482.087 43.2169C482.087 43.2169 482 43.0573 482 42.9775C482 42.8977 482 42.6583 482 42.5785C482 42.4987 482.203 42.2859 482.203 42.2859C482.203 42.2859 482.348 41.9135 482.811 41.6741C483.275 41.4348 485.101 40.5038 485.217 40.424C485.333 40.3442 485.768 39.7856 485.768 39.5995C485.768 39.4133 485.768 39.2803 485.768 39.2803V38.8813C485.768 38.8813 485.601 38.8015 485.601 38.7483C485.601 38.6951 485.601 38.0301 485.601 38.0301C485.601 38.0301 485.572 37.9503 485.572 37.9237C485.572 37.8353 485.643 37.7633 485.731 37.7622L487.63 37.7395Z" fill="#044988"/>
<path fill-rule="evenodd" clip-rule="evenodd" d="M472 28C471.448 28 471 28.4477 471 29V51.2377C471 51.7899 471.448 52.2377 472 52.2377H480.208C480.76 52.2377 481.208 51.7899 481.208 51.2377V29C481.208 28.4477 480.76 28 480.208 28H472ZM473.57 34.9766C473.018 34.9766 472.57 35.4243 472.57 35.9766V41.4364C472.57 41.9887 473.018 42.4364 473.57 42.4364H478.638C479.19 42.4364 479.638 41.9887 479.638 41.4364V35.9766C479.638 35.4243 479.19 34.9766 478.638 34.9766H473.57Z" fill="#044988"/>
<path d="M473.356 34.2815H474.926V36.6372C474.926 37.0709 474.575 37.4225 474.141 37.4225C473.707 37.4225 473.356 37.0709 473.356 36.6372V34.2815Z" fill="#044988"/>
<path d="M477.282 34.2815H478.852V36.6372C478.852 37.0709 478.501 37.4225 478.067 37.4225C477.634 37.4225 477.282 37.0709 477.282 36.6372V34.2815Z" fill="#044988"/>
<circle cx="606.554" cy="45.5545" r="2.55436" fill="#044988"/>
<circle cx="619.067" cy="45.5545" r="2.55436" fill="#044988"/>
<path fill-rule="evenodd" clip-rule="evenodd" d="M606.806 45.6719H621.531C622.636 45.6719 623.531 44.7765 623.531 43.6719V39.9183C623.531 39.5832 623.447 39.2536 623.286 38.9595L621.801 36.2403C621.45 35.5983 620.777 35.199 620.046 35.199H617C616.448 35.199 616 35.6467 616 36.199V39.5C616 39.7761 615.776 40 615.5 40C615.224 40 615 39.7761 615 39.5V34C615 32.8954 614.105 32 613 32H603.5C602.395 32 601.5 32.8954 601.5 34V43.6719C601.5 44.7765 602.395 45.6719 603.5 45.6719H606.806ZM618.279 36.9384C617.727 36.9384 617.279 37.3861 617.279 37.9384V38.7603C617.279 39.3126 617.727 39.7603 618.279 39.7603H620.246C620.99 39.7603 621.473 38.978 621.141 38.3131L620.73 37.4912C620.561 37.1524 620.214 36.9384 619.835 36.9384H618.279Z" fill="#044988"/>
<path d="M505.462 32.9141V45H503.179V32.9141H505.462ZM512.659 32.9141L507.886 39.9033H504.889L504.59 37.8945H506.649L509.878 32.9141H512.659ZM510.31 45L506.666 39.5381L508.201 37.853L513.041 45H510.31ZM518.909 43.0908V38.9487C518.909 38.6444 518.857 38.3815 518.751 38.1602C518.646 37.9388 518.486 37.7673 518.27 37.6455C518.054 37.5238 517.78 37.4629 517.448 37.4629C517.155 37.4629 516.898 37.5127 516.676 37.6123C516.46 37.7119 516.294 37.853 516.178 38.0356C516.062 38.2127 516.004 38.4175 516.004 38.6499H513.804C513.804 38.2791 513.893 37.9277 514.07 37.5957C514.247 37.2581 514.499 36.9593 514.825 36.6992C515.157 36.4336 515.553 36.2261 516.012 36.0767C516.477 35.9272 516.997 35.8525 517.573 35.8525C518.253 35.8525 518.859 35.9688 519.391 36.2012C519.927 36.4281 520.348 36.7712 520.652 37.2305C520.962 37.6898 521.117 38.2681 521.117 38.9653V42.8833C521.117 43.3315 521.145 43.7161 521.2 44.0371C521.261 44.3525 521.35 44.6265 521.466 44.8589V45H519.233C519.128 44.7731 519.048 44.4854 518.992 44.1367C518.937 43.7826 518.909 43.4339 518.909 43.0908ZM519.216 39.5298L519.233 40.833H517.847C517.504 40.833 517.202 40.869 516.942 40.9409C516.682 41.0073 516.469 41.1069 516.303 41.2397C516.137 41.367 516.012 41.522 515.929 41.7046C515.846 41.8817 515.805 42.0837 515.805 42.3105C515.805 42.5319 515.854 42.7311 515.954 42.9082C516.059 43.0853 516.209 43.2264 516.402 43.3315C516.602 43.4312 516.834 43.481 517.1 43.481C517.487 43.481 517.825 43.4035 518.112 43.2485C518.4 43.0881 518.624 42.8944 518.785 42.6675C518.945 42.4406 519.031 42.2248 519.042 42.02L519.673 42.9663C519.595 43.1932 519.479 43.4339 519.324 43.6885C519.169 43.943 518.97 44.181 518.727 44.4023C518.483 44.6237 518.19 44.8063 517.847 44.9502C517.504 45.0941 517.105 45.166 516.651 45.166C516.07 45.166 515.55 45.0498 515.091 44.8174C514.632 44.585 514.269 44.2668 514.003 43.8628C513.738 43.4588 513.605 42.9995 513.605 42.4849C513.605 42.009 513.694 41.5884 513.871 41.2231C514.048 40.8579 514.311 40.5508 514.659 40.3018C515.008 40.0472 515.439 39.8563 515.954 39.729C516.474 39.5962 517.069 39.5298 517.739 39.5298H519.216ZM527.318 36.0186V45H525.118V36.0186H527.318ZM530.24 36.0186V37.7285H522.246V36.0186H530.24ZM536.341 43.0908V38.9487C536.341 38.6444 536.288 38.3815 536.183 38.1602C536.078 37.9388 535.917 37.7673 535.702 37.6455C535.486 37.5238 535.212 37.4629 534.88 37.4629C534.587 37.4629 534.329 37.5127 534.108 37.6123C533.892 37.7119 533.726 37.853 533.61 38.0356C533.494 38.2127 533.436 38.4175 533.436 38.6499H531.236C531.236 38.2791 531.324 37.9277 531.501 37.5957C531.679 37.2581 531.93 36.9593 532.257 36.6992C532.589 36.4336 532.985 36.2261 533.444 36.0767C533.909 35.9272 534.429 35.8525 535.004 35.8525C535.685 35.8525 536.291 35.9688 536.822 36.2012C537.359 36.4281 537.78 36.7712 538.084 37.2305C538.394 37.6898 538.549 38.2681 538.549 38.9653V42.8833C538.549 43.3315 538.576 43.7161 538.632 44.0371C538.693 44.3525 538.781 44.6265 538.897 44.8589V45H536.665C536.559 44.7731 536.479 44.4854 536.424 44.1367C536.368 43.7826 536.341 43.4339 536.341 43.0908ZM536.648 39.5298L536.665 40.833H535.278C534.935 40.833 534.634 40.869 534.374 40.9409C534.113 41.0073 533.9 41.1069 533.734 41.2397C533.568 41.367 533.444 41.522 533.361 41.7046C533.278 41.8817 533.236 42.0837 533.236 42.3105C533.236 42.5319 533.286 42.7311 533.386 42.9082C533.491 43.0853 533.64 43.2264 533.834 43.3315C534.033 43.4312 534.266 43.481 534.531 43.481C534.919 43.481 535.256 43.4035 535.544 43.2485C535.832 43.0881 536.056 42.8944 536.216 42.6675C536.377 42.4406 536.463 42.2248 536.474 42.02L537.104 42.9663C537.027 43.1932 536.911 43.4339 536.756 43.6885C536.601 43.943 536.402 44.181 536.158 44.4023C535.915 44.6237 535.621 44.8063 535.278 44.9502C534.935 45.0941 534.537 45.166 534.083 45.166C533.502 45.166 532.982 45.0498 532.522 44.8174C532.063 44.585 531.701 44.2668 531.435 43.8628C531.169 43.4588 531.037 42.9995 531.037 42.4849C531.037 42.009 531.125 41.5884 531.302 41.2231C531.479 40.8579 531.742 40.5508 532.091 40.3018C532.439 40.0472 532.871 39.8563 533.386 39.729C533.906 39.5962 534.501 39.5298 535.17 39.5298H536.648ZM546.559 36.0186V37.7534H542.16V36.0186H546.559ZM548.211 36.0186V45H546.02V36.0186H548.211ZM541.612 36.0186H543.778L543.538 40.501C543.499 41.1595 543.43 41.7378 543.33 42.2358C543.23 42.7284 543.098 43.1517 542.932 43.5059C542.766 43.8545 542.564 44.1395 542.326 44.3608C542.088 44.5822 541.811 44.7454 541.496 44.8506C541.186 44.9502 540.837 45 540.45 45H539.777L539.752 43.2319L540.068 43.207C540.262 43.1904 540.428 43.1379 540.566 43.0493C540.71 42.9608 540.832 42.8335 540.931 42.6675C541.036 42.5015 541.122 42.2884 541.188 42.0283C541.26 41.7627 541.316 41.4528 541.354 41.0986C541.399 40.7389 541.429 40.3239 541.446 39.8535L541.612 36.0186ZM549.83 40.6006V40.4263C549.83 39.7677 549.924 39.1618 550.112 38.6084C550.3 38.0495 550.574 37.5653 550.934 37.1558C551.293 36.7463 551.733 36.4281 552.253 36.2012C552.774 35.9688 553.366 35.8525 554.03 35.8525C554.705 35.8525 555.303 35.9688 555.823 36.2012C556.348 36.4281 556.791 36.7463 557.151 37.1558C557.511 37.5653 557.785 38.0495 557.973 38.6084C558.161 39.1618 558.255 39.7677 558.255 40.4263V40.6006C558.255 41.2536 558.161 41.8595 557.973 42.4185C557.785 42.9718 557.511 43.4561 557.151 43.8711C556.791 44.2806 556.351 44.5988 555.831 44.8257C555.311 45.0526 554.716 45.166 554.046 45.166C553.382 45.166 552.787 45.0526 552.262 44.8257C551.736 44.5988 551.293 44.2806 550.934 43.8711C550.574 43.4561 550.3 42.9718 550.112 42.4185C549.924 41.8595 549.83 41.2536 549.83 40.6006ZM552.021 40.4263V40.6006C552.021 40.9935 552.06 41.3615 552.137 41.7046C552.215 42.0477 552.334 42.3493 552.494 42.6094C552.655 42.8695 552.862 43.0742 553.117 43.2236C553.377 43.3675 553.687 43.4395 554.046 43.4395C554.401 43.4395 554.705 43.3675 554.959 43.2236C555.214 43.0742 555.422 42.8695 555.582 42.6094C555.748 42.3493 555.87 42.0477 555.947 41.7046C556.025 41.3615 556.063 40.9935 556.063 40.6006V40.4263C556.063 40.0389 556.025 39.6764 555.947 39.3389C555.87 38.9958 555.748 38.6942 555.582 38.4341C555.422 38.1685 555.211 37.9609 554.951 37.8115C554.697 37.6566 554.389 37.5791 554.03 37.5791C553.676 37.5791 553.371 37.6566 553.117 37.8115C552.862 37.9609 552.655 38.1685 552.494 38.4341C552.334 38.6942 552.215 38.9958 552.137 39.3389C552.06 39.6764 552.021 40.0389 552.021 40.4263ZM565.883 36.0186V37.7534H562.057V45H559.865V36.0186H565.883Z" fill="#044988"/>
<path d="M646.726 43.207V45H637.918V43.207H646.726ZM638.541 43.207V47.9634H636.375L636.267 43.207H638.541ZM648.427 43.207L648.253 47.9717H646.136V43.207H648.427ZM645.306 32.9141V34.7153H639.612V32.9141H645.306ZM646.991 32.9141V45H644.717V32.9141H646.991ZM639.247 32.9141H641.529L641.222 37.8281C641.178 38.6195 641.095 39.325 640.973 39.9448C640.857 40.5646 640.713 41.1152 640.542 41.5967C640.37 42.0781 640.179 42.5015 639.969 42.8667C639.764 43.2264 639.545 43.5391 639.313 43.8047C639.086 44.0703 638.851 44.3 638.607 44.4937C638.369 44.6818 638.134 44.8506 637.902 45H636.632V43.207H637.18C637.34 43.0687 637.509 42.875 637.686 42.626C637.869 42.377 638.043 42.0477 638.209 41.6382C638.381 41.2287 638.53 40.7113 638.657 40.0859C638.785 39.4606 638.876 38.708 638.931 37.8281L639.247 32.9141ZM649.299 40.6006V40.4263C649.299 39.7677 649.393 39.1618 649.581 38.6084C649.769 38.0495 650.043 37.5653 650.403 37.1558C650.763 36.7463 651.202 36.4281 651.723 36.2012C652.243 35.9688 652.835 35.8525 653.499 35.8525C654.174 35.8525 654.772 35.9688 655.292 36.2012C655.818 36.4281 656.26 36.7463 656.62 37.1558C656.98 37.5653 657.254 38.0495 657.442 38.6084C657.63 39.1618 657.724 39.7677 657.724 40.4263V40.6006C657.724 41.2536 657.63 41.8595 657.442 42.4185C657.254 42.9718 656.98 43.4561 656.62 43.8711C656.26 44.2806 655.82 44.5988 655.3 44.8257C654.78 45.0526 654.185 45.166 653.516 45.166C652.852 45.166 652.257 45.0526 651.731 44.8257C651.205 44.5988 650.763 44.2806 650.403 43.8711C650.043 43.4561 649.769 42.9718 649.581 42.4185C649.393 41.8595 649.299 41.2536 649.299 40.6006ZM651.49 40.4263V40.6006C651.49 40.9935 651.529 41.3615 651.606 41.7046C651.684 42.0477 651.803 42.3493 651.963 42.6094C652.124 42.8695 652.331 43.0742 652.586 43.2236C652.846 43.3675 653.156 43.4395 653.516 43.4395C653.87 43.4395 654.174 43.3675 654.429 43.2236C654.683 43.0742 654.891 42.8695 655.051 42.6094C655.217 42.3493 655.339 42.0477 655.417 41.7046C655.494 41.3615 655.533 40.9935 655.533 40.6006V40.4263C655.533 40.0389 655.494 39.6764 655.417 39.3389C655.339 38.9958 655.217 38.6942 655.051 38.4341C654.891 38.1685 654.681 37.9609 654.42 37.8115C654.166 37.6566 653.859 37.5791 653.499 37.5791C653.145 37.5791 652.84 37.6566 652.586 37.8115C652.331 37.9609 652.124 38.1685 651.963 38.4341C651.803 38.6942 651.684 38.9958 651.606 39.3389C651.529 39.6764 651.49 40.0389 651.49 40.4263ZM663.003 43.4395C663.313 43.4395 663.59 43.3786 663.833 43.2568C664.077 43.1351 664.271 42.9635 664.415 42.7422C664.564 42.5208 664.644 42.2635 664.655 41.9702H666.722C666.711 42.5789 666.54 43.124 666.208 43.6055C665.875 44.0869 665.433 44.4688 664.879 44.751C664.332 45.0277 663.717 45.166 663.037 45.166C662.345 45.166 661.742 45.0498 661.227 44.8174C660.712 44.585 660.284 44.2612 659.94 43.8462C659.603 43.4312 659.348 42.9497 659.177 42.4019C659.011 41.854 658.928 41.2674 658.928 40.6421V40.3765C658.928 39.7511 659.011 39.1646 659.177 38.6167C659.348 38.0688 659.603 37.5874 659.94 37.1724C660.284 36.7573 660.712 36.4336 661.227 36.2012C661.742 35.9688 662.342 35.8525 663.028 35.8525C663.753 35.8525 664.39 35.9937 664.938 36.2759C665.491 36.5581 665.923 36.9565 666.232 37.4712C666.548 37.9858 666.711 38.5918 666.722 39.2891H664.655C664.644 38.9681 664.572 38.6803 664.439 38.4258C664.307 38.1712 664.118 37.9665 663.875 37.8115C663.632 37.6566 663.335 37.5791 662.987 37.5791C662.616 37.5791 662.306 37.6566 662.057 37.8115C661.814 37.9665 661.623 38.1795 661.484 38.4507C661.352 38.7163 661.257 39.0151 661.202 39.3472C661.152 39.6737 661.127 40.0168 661.127 40.3765V40.6421C661.127 41.0073 661.152 41.356 661.202 41.688C661.257 42.02 661.352 42.3188 661.484 42.5845C661.623 42.8446 661.814 43.0521 662.057 43.207C662.306 43.362 662.622 43.4395 663.003 43.4395ZM672.541 36.0186V45H670.341V36.0186H672.541ZM675.463 36.0186V37.7285H667.469V36.0186H675.463ZM681.564 43.0908V38.9487C681.564 38.6444 681.511 38.3815 681.406 38.1602C681.301 37.9388 681.141 37.7673 680.925 37.6455C680.709 37.5238 680.435 37.4629 680.103 37.4629C679.81 37.4629 679.552 37.5127 679.331 37.6123C679.115 37.7119 678.949 37.853 678.833 38.0356C678.717 38.2127 678.659 38.4175 678.659 38.6499H676.459C676.459 38.2791 676.548 37.9277 676.725 37.5957C676.902 37.2581 677.153 36.9593 677.48 36.6992C677.812 36.4336 678.208 36.2261 678.667 36.0767C679.132 35.9272 679.652 35.8525 680.228 35.8525C680.908 35.8525 681.514 35.9688 682.045 36.2012C682.582 36.4281 683.003 36.7712 683.307 37.2305C683.617 37.6898 683.772 38.2681 683.772 38.9653V42.8833C683.772 43.3315 683.8 43.7161 683.855 44.0371C683.916 44.3525 684.004 44.6265 684.121 44.8589V45H681.888C681.783 44.7731 681.702 44.4854 681.647 44.1367C681.592 43.7826 681.564 43.4339 681.564 43.0908ZM681.871 39.5298L681.888 40.833H680.501C680.158 40.833 679.857 40.869 679.597 40.9409C679.337 41.0073 679.124 41.1069 678.958 41.2397C678.792 41.367 678.667 41.522 678.584 41.7046C678.501 41.8817 678.459 42.0837 678.459 42.3105C678.459 42.5319 678.509 42.7311 678.609 42.9082C678.714 43.0853 678.863 43.2264 679.057 43.3315C679.256 43.4312 679.489 43.481 679.754 43.481C680.142 43.481 680.479 43.4035 680.767 43.2485C681.055 43.0881 681.279 42.8944 681.439 42.6675C681.6 42.4406 681.686 42.2248 681.697 42.02L682.328 42.9663C682.25 43.1932 682.134 43.4339 681.979 43.6885C681.824 43.943 681.625 44.181 681.381 44.4023C681.138 44.6237 680.845 44.8063 680.501 44.9502C680.158 45.0941 679.76 45.166 679.306 45.166C678.725 45.166 678.205 45.0498 677.746 44.8174C677.286 44.585 676.924 44.2668 676.658 43.8628C676.393 43.4588 676.26 42.9995 676.26 42.4849C676.26 42.009 676.348 41.5884 676.525 41.2231C676.702 40.8579 676.965 40.5508 677.314 40.3018C677.663 40.0472 678.094 39.8563 678.609 39.729C679.129 39.5962 679.724 39.5298 680.394 39.5298H681.871ZM690.164 41.1982H687.316L687.3 39.7124H689.641C689.989 39.7124 690.274 39.6764 690.496 39.6045C690.717 39.5326 690.88 39.4246 690.985 39.2808C691.096 39.1369 691.151 38.9626 691.151 38.7578C691.151 38.5807 691.118 38.4285 691.052 38.3013C690.985 38.1685 690.886 38.0605 690.753 37.9775C690.626 37.8945 690.462 37.8337 690.263 37.7949C690.069 37.7507 689.843 37.7285 689.583 37.7285H688.097V45H685.897V36.0186H689.583C690.164 36.0186 690.687 36.0711 691.151 36.1763C691.616 36.2759 692.012 36.4281 692.338 36.6328C692.665 36.8376 692.914 37.0977 693.085 37.4131C693.263 37.723 693.351 38.0882 693.351 38.5088C693.351 38.7855 693.29 39.0456 693.168 39.2891C693.047 39.5326 692.867 39.7484 692.629 39.9365C692.391 40.1247 692.098 40.2796 691.749 40.4014C691.4 40.5176 691.002 40.5895 690.554 40.6172L690.164 41.1982ZM690.164 45H686.727L687.541 43.29H690.164C690.485 43.29 690.75 43.2513 690.96 43.1738C691.171 43.0908 691.326 42.9718 691.425 42.8169C691.53 42.6619 691.583 42.4738 691.583 42.2524C691.583 42.0366 691.533 41.8512 691.434 41.6963C691.34 41.5358 691.187 41.4141 690.977 41.3311C690.772 41.2425 690.501 41.1982 690.164 41.1982H687.897L687.914 39.7124H690.545L691.126 40.3018C691.724 40.3405 692.219 40.4622 692.612 40.667C693.005 40.8662 693.299 41.1208 693.492 41.4307C693.686 41.735 693.783 42.0698 693.783 42.4351C693.783 42.8612 693.702 43.2347 693.542 43.5557C693.382 43.8766 693.146 44.145 692.836 44.3608C692.527 44.5711 692.147 44.7316 691.699 44.8423C691.251 44.9474 690.739 45 690.164 45ZM697.717 36.0186V45H695.526V36.0186H697.717ZM703.569 36.0186L699.61 41.5303H697.277L697.003 39.5215H698.622L700.805 36.0186H703.569ZM700.938 45L698.481 41.1484L700.307 40.0029L703.852 45H700.938ZM709.803 43.0908V38.9487C709.803 38.6444 709.751 38.3815 709.646 38.1602C709.54 37.9388 709.38 37.7673 709.164 37.6455C708.948 37.5238 708.674 37.4629 708.342 37.4629C708.049 37.4629 707.792 37.5127 707.57 37.6123C707.354 37.7119 707.188 37.853 707.072 38.0356C706.956 38.2127 706.898 38.4175 706.898 38.6499H704.698C704.698 38.2791 704.787 37.9277 704.964 37.5957C705.141 37.2581 705.393 36.9593 705.719 36.6992C706.051 36.4336 706.447 36.2261 706.906 36.0767C707.371 35.9272 707.891 35.8525 708.467 35.8525C709.147 35.8525 709.753 35.9688 710.285 36.2012C710.821 36.4281 711.242 36.7712 711.546 37.2305C711.856 37.6898 712.011 38.2681 712.011 38.9653V42.8833C712.011 43.3315 712.039 43.7161 712.094 44.0371C712.155 44.3525 712.244 44.6265 712.36 44.8589V45H710.127C710.022 44.7731 709.942 44.4854 709.886 44.1367C709.831 43.7826 709.803 43.4339 709.803 43.0908ZM710.11 39.5298L710.127 40.833H708.741C708.398 40.833 708.096 40.869 707.836 40.9409C707.576 41.0073 707.363 41.1069 707.197 41.2397C707.031 41.367 706.906 41.522 706.823 41.7046C706.74 41.8817 706.699 42.0837 706.699 42.3105C706.699 42.5319 706.749 42.7311 706.848 42.9082C706.953 43.0853 707.103 43.2264 707.296 43.3315C707.496 43.4312 707.728 43.481 707.994 43.481C708.381 43.481 708.719 43.4035 709.006 43.2485C709.294 43.0881 709.518 42.8944 709.679 42.6675C709.839 42.4406 709.925 42.2248 709.936 42.02L710.567 42.9663C710.489 43.1932 710.373 43.4339 710.218 43.6885C710.063 43.943 709.864 44.181 709.621 44.4023C709.377 44.6237 709.084 44.8063 708.741 44.9502C708.398 45.0941 707.999 45.166 707.545 45.166C706.964 45.166 706.444 45.0498 705.985 44.8174C705.526 44.585 705.163 44.2668 704.897 43.8628C704.632 43.4588 704.499 42.9995 704.499 42.4849C704.499 42.009 704.588 41.5884 704.765 41.2231C704.942 40.8579 705.205 40.5508 705.553 40.3018C705.902 40.0472 706.333 39.8563 706.848 39.729C707.368 39.5962 707.963 39.5298 708.633 39.5298H710.11Z" fill="#044988"/>
<rect x="785.5" y="19.5" width="150" height="39" rx="1.5" stroke="#10EBF8"/>
<path d="M813.862 35.1797V36.4419H810.344V43H808.738V35.1797H813.862ZM809.791 38.0317H811.617C812.233 38.0317 812.763 38.1338 813.207 38.3379C813.651 38.542 813.993 38.8285 814.233 39.1973C814.473 39.5661 814.593 39.9958 814.593 40.4863C814.593 40.8587 814.525 41.1989 814.389 41.5068C814.253 41.8112 814.054 42.0762 813.792 42.3018C813.535 42.5238 813.223 42.6956 812.858 42.8174C812.493 42.9391 812.079 43 811.617 43H808.738V35.1797H810.355V41.7432H811.617C811.925 41.7432 812.179 41.6859 812.38 41.5713C812.58 41.4567 812.731 41.3045 812.831 41.1147C812.935 40.9214 812.987 40.7083 812.987 40.4756C812.987 40.2536 812.935 40.0531 812.831 39.874C812.731 39.6914 812.58 39.5482 812.38 39.4443C812.179 39.3405 811.925 39.2886 811.617 39.2886H809.791V38.0317ZM817.709 38.0317H819.535C820.147 38.0317 820.676 38.1338 821.12 38.3379C821.567 38.542 821.909 38.8285 822.146 39.1973C822.385 39.5661 822.505 39.9958 822.505 40.4863C822.505 40.8587 822.437 41.1989 822.301 41.5068C822.165 41.8112 821.968 42.0762 821.71 42.3018C821.453 42.5238 821.141 42.6956 820.776 42.8174C820.411 42.9391 819.997 43 819.535 43H816.656V35.1797H818.273V41.7432H819.535C819.84 41.7432 820.092 41.6859 820.292 41.5713C820.497 41.4567 820.649 41.3045 820.749 41.1147C820.849 40.9214 820.899 40.7083 820.899 40.4756C820.899 40.2536 820.849 40.0531 820.749 39.874C820.649 39.6914 820.497 39.5482 820.292 39.4443C820.092 39.3405 819.84 39.2886 819.535 39.2886H817.709V38.0317ZM824.804 35.1797V43H823.198V35.1797H824.804ZM831.739 40.4058H833.345C833.313 40.9321 833.168 41.3994 832.91 41.8076C832.656 42.2158 832.3 42.5345 831.841 42.7637C831.387 42.9928 830.839 43.1074 830.198 43.1074C829.696 43.1074 829.247 43.0215 828.85 42.8496C828.452 42.6742 828.112 42.4235 827.829 42.0977C827.55 41.7718 827.337 41.3779 827.19 40.916C827.043 40.4541 826.97 39.9367 826.97 39.3638V38.8213C826.97 38.2484 827.045 37.731 827.195 37.269C827.349 36.8035 827.568 36.4079 827.851 36.082C828.137 35.7562 828.479 35.5055 828.876 35.3301C829.274 35.1546 829.718 35.0669 830.208 35.0669C830.86 35.0669 831.41 35.1851 831.857 35.4214C832.309 35.6577 832.658 35.9836 832.905 36.3989C833.155 36.8143 833.306 37.2869 833.356 37.8169H831.745C831.727 37.5018 831.664 37.235 831.557 37.0166C831.449 36.7946 831.286 36.6281 831.068 36.5171C830.853 36.4025 830.567 36.3452 830.208 36.3452C829.94 36.3452 829.705 36.3953 829.505 36.4956C829.304 36.5959 829.136 36.748 829 36.9521C828.864 37.1562 828.762 37.4141 828.694 37.7256C828.629 38.0335 828.597 38.3952 828.597 38.8105V39.3638C828.597 39.7684 828.628 40.1247 828.688 40.4326C828.749 40.737 828.842 40.9948 828.968 41.2061C829.097 41.4137 829.261 41.5713 829.462 41.6787C829.666 41.7826 829.911 41.8345 830.198 41.8345C830.534 41.8345 830.812 41.7808 831.03 41.6733C831.249 41.5659 831.415 41.4066 831.53 41.1953C831.648 40.984 831.718 40.7209 831.739 40.4058ZM838.739 35.1797V43H837.133V35.1797H838.739ZM841.145 35.1797V36.4419H834.764V35.1797H841.145ZM846.109 40.2124H844.116V38.9556H846.109C846.417 38.9556 846.667 38.9054 846.861 38.8052C847.054 38.7013 847.196 38.5581 847.285 38.3755C847.375 38.1929 847.419 37.987 847.419 37.7578C847.419 37.5251 847.375 37.3084 847.285 37.1079C847.196 36.9074 847.054 36.7463 846.861 36.6245C846.667 36.5028 846.417 36.4419 846.109 36.4419H844.675V43H843.063V35.1797H846.109C846.721 35.1797 847.246 35.2907 847.683 35.5127C848.123 35.7311 848.46 36.0337 848.692 36.4204C848.925 36.8071 849.042 37.2493 849.042 37.7471C849.042 38.252 848.925 38.6888 848.692 39.0576C848.46 39.4264 848.123 39.7111 847.683 39.9116C847.246 40.1121 846.721 40.2124 846.109 40.2124ZM852.217 38.0317H854.043C854.655 38.0317 855.183 38.1338 855.627 38.3379C856.075 38.542 856.417 38.8285 856.653 39.1973C856.893 39.5661 857.013 39.9958 857.013 40.4863C857.013 40.8587 856.945 41.1989 856.809 41.5068C856.673 41.8112 856.476 42.0762 856.218 42.3018C855.96 42.5238 855.649 42.6956 855.284 42.8174C854.918 42.9391 854.505 43 854.043 43H851.164V35.1797H852.781V41.7432H854.043C854.347 41.7432 854.6 41.6859 854.8 41.5713C855.004 41.4567 855.157 41.3045 855.257 41.1147C855.357 40.9214 855.407 40.7083 855.407 40.4756C855.407 40.2536 855.357 40.0531 855.257 39.874C855.157 39.6914 855.004 39.5482 854.8 39.4443C854.6 39.3405 854.347 39.2886 854.043 39.2886H852.217V38.0317ZM859.312 35.1797V43H857.706V35.1797H859.312ZM863.266 40.4648L866.408 35.1797H868.02V43H866.408V37.7148L863.266 43H861.655V35.1797H863.266V40.4648ZM865.619 33.1279H866.72C866.72 33.4359 866.643 33.7098 866.489 33.9497C866.338 34.186 866.124 34.3722 865.844 34.5083C865.565 34.6408 865.236 34.707 864.856 34.707C864.279 34.707 863.823 34.5602 863.486 34.2666C863.153 33.973 862.987 33.5934 862.987 33.1279H864.083C864.083 33.3141 864.14 33.4806 864.254 33.6274C864.373 33.7743 864.573 33.8477 864.856 33.8477C865.135 33.8477 865.332 33.7743 865.447 33.6274C865.561 33.4806 865.619 33.3141 865.619 33.1279ZM877.077 39.251H875.863V38.397H876.83C877.113 38.397 877.342 38.354 877.518 38.2681C877.693 38.1785 877.822 38.0532 877.904 37.8921C877.987 37.731 878.028 37.5412 878.028 37.3228C878.028 37.1437 877.981 36.979 877.888 36.8286C877.799 36.6782 877.659 36.5583 877.469 36.4688C877.279 36.3757 877.038 36.3291 876.744 36.3291C876.522 36.3291 876.32 36.3685 876.137 36.4473C875.955 36.526 875.81 36.637 875.702 36.7803C875.595 36.9199 875.541 37.09 875.541 37.2905H873.935C873.935 36.9468 874.008 36.6388 874.155 36.3667C874.306 36.091 874.51 35.8582 874.768 35.6685C875.029 35.4751 875.33 35.3283 875.67 35.228C876.01 35.1278 876.368 35.0776 876.744 35.0776C877.185 35.0776 877.582 35.126 877.937 35.2227C878.291 35.3158 878.595 35.4554 878.85 35.6416C879.104 35.8278 879.299 36.0588 879.435 36.3345C879.571 36.6102 879.639 36.9307 879.639 37.2959C879.639 37.5645 879.578 37.8169 879.457 38.0532C879.335 38.2896 879.161 38.4972 878.936 38.6763C878.71 38.8553 878.44 38.9967 878.125 39.1006C877.809 39.2008 877.46 39.251 877.077 39.251ZM875.863 38.7837H877.077C877.503 38.7837 877.881 38.8285 878.21 38.918C878.543 39.0075 878.825 39.1382 879.054 39.3101C879.286 39.4819 879.462 39.695 879.58 39.9492C879.702 40.1999 879.763 40.4881 879.763 40.814C879.763 41.1792 879.688 41.5033 879.537 41.7861C879.39 42.069 879.181 42.3089 878.909 42.5059C878.64 42.7028 878.321 42.8514 877.953 42.9517C877.587 43.0519 877.185 43.1021 876.744 43.1021C876.393 43.1021 876.044 43.0591 875.697 42.9731C875.349 42.8836 875.034 42.7476 874.751 42.5649C874.469 42.3823 874.243 42.1478 874.075 41.8613C873.906 41.5749 873.822 41.2311 873.822 40.8301H875.439C875.439 41.0199 875.494 41.1935 875.605 41.3511C875.716 41.505 875.87 41.6286 876.067 41.7217C876.264 41.8112 876.49 41.856 876.744 41.856C877.041 41.856 877.294 41.8094 877.501 41.7163C877.713 41.6232 877.872 41.4961 877.979 41.335C878.09 41.1702 878.146 40.9894 878.146 40.7925C878.146 40.5812 878.117 40.4022 878.06 40.2554C878.003 40.1086 877.919 39.9886 877.808 39.8955C877.697 39.7988 877.559 39.729 877.394 39.686C877.233 39.6431 877.045 39.6216 876.83 39.6216H875.863V38.7837ZM885.135 36.5171L883.008 43H881.294L884.2 35.1797H885.291L885.135 36.5171ZM886.902 43L884.77 36.5171L884.598 35.1797H885.699L888.621 43H886.902ZM886.805 40.0889V41.3511H882.675V40.0889H886.805ZM891.962 35.1797V43H890.351V35.1797H891.962ZM896.571 35.1797L893.574 39.772H891.603L891.398 38.3379H892.714L894.616 35.1797H896.571ZM894.911 43L892.72 39.5034L893.837 38.354L896.823 43H894.911ZM901.637 36.5171L899.51 43H897.796L900.702 35.1797H901.792L901.637 36.5171ZM903.404 43L901.271 36.5171L901.1 35.1797H902.201L905.123 43H903.404ZM903.307 40.0889V41.3511H899.177V40.0889H903.307ZM909.77 39.251H908.556V38.397H909.522C909.805 38.397 910.035 38.354 910.21 38.2681C910.385 38.1785 910.514 38.0532 910.597 37.8921C910.679 37.731 910.72 37.5412 910.72 37.3228C910.72 37.1437 910.674 36.979 910.581 36.8286C910.491 36.6782 910.351 36.5583 910.162 36.4688C909.972 36.3757 909.73 36.3291 909.437 36.3291C909.215 36.3291 909.012 36.3685 908.83 36.4473C908.647 36.526 908.502 36.637 908.395 36.7803C908.287 36.9199 908.233 37.09 908.233 37.2905H906.627C906.627 36.9468 906.701 36.6388 906.848 36.3667C906.998 36.091 907.202 35.8582 907.46 35.6685C907.721 35.4751 908.022 35.3283 908.362 35.228C908.702 35.1278 909.061 35.0776 909.437 35.0776C909.877 35.0776 910.274 35.126 910.629 35.2227C910.983 35.3158 911.288 35.4554 911.542 35.6416C911.796 35.8278 911.991 36.0588 912.127 36.3345C912.264 36.6102 912.332 36.9307 912.332 37.2959C912.332 37.5645 912.271 37.8169 912.149 38.0532C912.027 38.2896 911.854 38.4972 911.628 38.6763C911.402 38.8553 911.132 38.9967 910.817 39.1006C910.502 39.2008 910.153 39.251 909.77 39.251ZM908.556 38.7837H909.77C910.196 38.7837 910.573 38.8285 910.903 38.918C911.236 39.0075 911.517 39.1382 911.746 39.3101C911.979 39.4819 912.154 39.695 912.272 39.9492C912.394 40.1999 912.455 40.4881 912.455 40.814C912.455 41.1792 912.38 41.5033 912.229 41.7861C912.083 42.069 911.873 42.3089 911.601 42.5059C911.333 42.7028 911.014 42.8514 910.645 42.9517C910.28 43.0519 909.877 43.1021 909.437 43.1021C909.086 43.1021 908.736 43.0591 908.389 42.9731C908.042 42.8836 907.727 42.7476 907.444 42.5649C907.161 42.3823 906.935 42.1478 906.767 41.8613C906.599 41.5749 906.515 41.2311 906.515 40.8301H908.131C908.131 41.0199 908.187 41.1935 908.298 41.3511C908.409 41.505 908.563 41.6286 908.76 41.7217C908.957 41.8112 909.182 41.856 909.437 41.856C909.734 41.856 909.986 41.8094 910.194 41.7163C910.405 41.6232 910.564 41.4961 910.672 41.335C910.783 41.1702 910.838 40.9894 910.838 40.7925C910.838 40.5812 910.81 40.4022 910.752 40.2554C910.695 40.1086 910.611 39.9886 910.5 39.8955C910.389 39.7988 910.251 39.729 910.086 39.686C909.925 39.6431 909.737 39.6216 909.522 39.6216H908.556V38.7837Z" fill="#3E4144"/>
<path d="M1129 37L1132 40L1135 37" stroke="#869099" stroke-opacity="0.46" stroke-width="1.5" stroke-linecap="round"/>
<path d="M967.211 37.8018V40.1836H958.439V37.8018H967.211ZM964.135 34.4004V43.7168H961.551V34.4004H964.135ZM977.354 32.2031V33.6797L972.484 45H969.584L974.453 34.3389H968.213V32.2031H977.354ZM983.673 40.0166V39.7969C983.673 38.5723 983.799 37.459 984.051 36.457C984.309 35.4492 984.648 34.5674 985.07 33.8115C985.498 33.0498 985.97 32.417 986.485 31.9131C987.001 31.4092 987.52 31.0488 988.041 30.832L988.568 32.2295C988.234 32.4756 987.909 32.8096 987.593 33.2314C987.282 33.6475 986.998 34.1631 986.74 34.7783C986.488 35.3936 986.286 36.1143 986.134 36.9404C985.987 37.7666 985.914 38.7129 985.914 39.7793V40.0342C985.914 41.1006 985.987 42.0469 986.134 42.873C986.286 43.6992 986.488 44.4199 986.74 45.0352C986.998 45.6504 987.282 46.1689 987.593 46.5908C987.909 47.0186 988.234 47.3555 988.568 47.6016L988.041 48.9814C987.52 48.7588 987.001 48.3955 986.485 47.8916C985.97 47.3936 985.498 46.7637 985.07 46.002C984.648 45.2461 984.309 44.3672 984.051 43.3652C983.799 42.3574 983.673 41.2412 983.673 40.0166ZM991.583 42.9346H991.759C992.403 42.9346 992.969 42.8613 993.455 42.7148C993.941 42.5625 994.349 42.3369 994.677 42.0381C995.011 41.7334 995.263 41.3555 995.433 40.9043C995.603 40.4473 995.688 39.9082 995.688 39.2871V36.7559C995.688 36.3164 995.646 35.9355 995.564 35.6133C995.488 35.2852 995.374 35.0127 995.222 34.7959C995.069 34.5791 994.891 34.418 994.686 34.3125C994.48 34.207 994.255 34.1543 994.009 34.1543C993.751 34.1543 993.522 34.2217 993.323 34.3564C993.13 34.4912 992.963 34.6729 992.822 34.9014C992.682 35.1299 992.576 35.3877 992.506 35.6748C992.436 35.9619 992.4 36.2549 992.4 36.5537C992.4 36.876 992.436 37.1777 992.506 37.459C992.582 37.7402 992.69 37.9863 992.831 38.1973C992.972 38.4082 993.15 38.5752 993.367 38.6982C993.584 38.8154 993.836 38.874 994.123 38.874C994.41 38.874 994.659 38.8213 994.87 38.7158C995.087 38.6104 995.269 38.4697 995.415 38.2939C995.567 38.1182 995.682 37.9277 995.758 37.7227C995.834 37.5117 995.872 37.3037 995.872 37.0986L996.716 37.6611C996.716 38.0537 996.628 38.4404 996.452 38.8213C996.282 39.2021 996.045 39.5479 995.74 39.8584C995.436 40.1689 995.081 40.418 994.677 40.6055C994.278 40.7871 993.854 40.8779 993.402 40.8779C992.816 40.8779 992.289 40.7725 991.82 40.5615C991.357 40.3506 990.965 40.0547 990.643 39.6738C990.32 39.2871 990.074 38.8301 989.904 38.3027C989.734 37.7754 989.649 37.1953 989.649 36.5625C989.649 35.9414 989.755 35.3584 989.966 34.8135C990.177 34.2627 990.476 33.7793 990.862 33.3633C991.249 32.9473 991.709 32.6191 992.242 32.3789C992.781 32.1387 993.376 32.0186 994.026 32.0186C994.665 32.0186 995.251 32.1416 995.784 32.3877C996.317 32.6279 996.783 32.9736 997.182 33.4248C997.58 33.876 997.888 34.4238 998.104 35.0684C998.327 35.7129 998.438 36.4395 998.438 37.248V38.1973C998.438 39.0645 998.339 39.8613 998.14 40.5879C997.94 41.3145 997.647 41.959 997.261 42.5215C996.88 43.084 996.417 43.5615 995.872 43.9541C995.333 44.3467 994.721 44.6455 994.035 44.8506C993.355 45.0498 992.611 45.1494 991.803 45.1494H991.583V42.9346ZM1006.51 32.1943V45H1003.76V35.3232L1000.79 36.2285V34.1016L1006.23 32.1943H1006.51ZM1017.13 32.0449H1017.55V34.2246H1017.4C1016.78 34.2246 1016.22 34.3125 1015.71 34.4883C1015.21 34.6641 1014.77 34.9248 1014.4 35.2705C1014.03 35.6104 1013.75 36.0322 1013.55 36.5361C1013.35 37.0342 1013.26 37.6084 1013.26 38.2588V40.4385C1013.26 40.8779 1013.29 41.2617 1013.37 41.5898C1013.45 41.9121 1013.57 42.1816 1013.72 42.3984C1013.88 42.6094 1014.07 42.7705 1014.29 42.8818C1014.52 42.9873 1014.77 43.04 1015.05 43.04C1015.3 43.04 1015.53 42.9844 1015.74 42.873C1015.96 42.7617 1016.14 42.6035 1016.29 42.3984C1016.44 42.1934 1016.56 41.9561 1016.64 41.6865C1016.72 41.4111 1016.76 41.1123 1016.76 40.79C1016.76 40.4502 1016.72 40.1426 1016.63 39.8672C1016.55 39.5859 1016.43 39.3457 1016.27 39.1465C1016.12 38.9473 1015.93 38.7949 1015.71 38.6895C1015.49 38.5781 1015.24 38.5225 1014.97 38.5225C1014.58 38.5225 1014.25 38.6104 1013.97 38.7861C1013.69 38.9619 1013.47 39.1875 1013.32 39.4629C1013.17 39.7383 1013.09 40.0195 1013.08 40.3066L1012.35 39.7002C1012.35 39.3018 1012.43 38.9092 1012.59 38.5225C1012.75 38.1299 1012.98 37.7754 1013.28 37.459C1013.58 37.1367 1013.95 36.8818 1014.38 36.6943C1014.82 36.501 1015.32 36.4043 1015.88 36.4043C1016.48 36.4043 1017 36.5186 1017.45 36.7471C1017.9 36.9697 1018.28 37.2803 1018.58 37.6787C1018.89 38.0771 1019.12 38.543 1019.28 39.0762C1019.44 39.6035 1019.51 40.1689 1019.51 40.7725C1019.51 41.3936 1019.41 41.9736 1019.19 42.5127C1018.98 43.0459 1018.68 43.5117 1018.29 43.9102C1017.91 44.3086 1017.44 44.6191 1016.9 44.8418C1016.37 45.0645 1015.78 45.1758 1015.12 45.1758C1014.44 45.1758 1013.82 45.0557 1013.26 44.8154C1012.7 44.5752 1012.21 44.2324 1011.8 43.7871C1011.39 43.3359 1011.07 42.7969 1010.84 42.1699C1010.62 41.543 1010.51 40.8398 1010.51 40.0605V39.0322C1010.51 37.9658 1010.67 37.0049 1011 36.1494C1011.33 35.2939 1011.79 34.5615 1012.39 33.9521C1012.98 33.3369 1013.69 32.8652 1014.5 32.5371C1015.3 32.209 1016.18 32.0449 1017.13 32.0449ZM1025.5 39.7969V40.0166C1025.5 41.1943 1025.37 42.2812 1025.1 43.2773C1024.84 44.2734 1024.49 45.1582 1024.05 45.9316C1023.61 46.7051 1023.12 47.3496 1022.58 47.8652C1022.05 48.3867 1021.51 48.7588 1020.97 48.9814L1020.44 47.6016C1020.77 47.3555 1021.09 47.0215 1021.4 46.5996C1021.72 46.1777 1022 45.6562 1022.26 45.0352C1022.51 44.4199 1022.72 43.6992 1022.86 42.873C1023.02 42.0469 1023.09 41.1006 1023.09 40.0342V39.7793C1023.09 38.7129 1023.02 37.7666 1022.86 36.9404C1022.71 36.1143 1022.51 35.3936 1022.25 34.7783C1022 34.1572 1021.71 33.6357 1021.4 33.2139C1021.08 32.792 1020.76 32.458 1020.44 32.2119L1020.97 30.832C1021.51 31.0488 1022.05 31.418 1022.58 31.9395C1023.12 32.4609 1023.61 33.1084 1024.05 33.8818C1024.49 34.6553 1024.84 35.543 1025.1 36.5449C1025.37 37.541 1025.5 38.625 1025.5 39.7969ZM1038.11 32.1943V45H1035.36V35.3232L1032.39 36.2285V34.1016L1037.84 32.1943H1038.11ZM1050.94 32.2031V33.6797L1046.07 45H1043.17L1048.04 34.3389H1041.79V32.2031H1050.94ZM1058.89 32.1943V45H1056.14V35.3232L1053.17 36.2285V34.1016L1058.62 32.1943H1058.89ZM1068.37 38.4258V40.5703H1063.26V38.4258H1068.37ZM1079.35 42.8643V45H1070.51V43.1895L1074.64 38.8125C1075.03 38.3672 1075.33 37.9746 1075.56 37.6348C1075.8 37.2949 1075.97 36.9873 1076.07 36.7119C1076.18 36.4307 1076.23 36.1729 1076.23 35.9385C1076.23 35.5576 1076.17 35.2354 1076.05 34.9717C1075.93 34.708 1075.76 34.5059 1075.53 34.3652C1075.3 34.2246 1075.02 34.1543 1074.69 34.1543C1074.34 34.1543 1074.04 34.2451 1073.79 34.4268C1073.54 34.6084 1073.34 34.8604 1073.21 35.1826C1073.07 35.499 1073 35.8594 1073 36.2637H1070.25C1070.25 35.4844 1070.43 34.7754 1070.81 34.1367C1071.18 33.4922 1071.71 32.9795 1072.38 32.5986C1073.05 32.2119 1073.84 32.0186 1074.75 32.0186C1075.67 32.0186 1076.45 32.165 1077.07 32.458C1077.7 32.751 1078.18 33.1699 1078.5 33.7148C1078.82 34.2598 1078.98 34.916 1078.98 35.6836C1078.98 36.1172 1078.91 36.5361 1078.77 36.9404C1078.64 37.3447 1078.44 37.7461 1078.18 38.1445C1077.92 38.543 1077.61 38.9502 1077.25 39.3662C1076.89 39.7764 1076.48 40.21 1076.02 40.667L1074.09 42.8643H1079.35ZM1089.7 32.2031V33.6797L1084.83 45H1081.93L1086.79 34.3389H1080.55V32.2031H1089.7ZM1096.74 38.4258V40.5703H1091.63V38.4258H1096.74ZM1105.48 32.0449H1105.9V34.2246H1105.74C1105.13 34.2246 1104.57 34.3125 1104.06 34.4883C1103.55 34.6641 1103.12 34.9248 1102.75 35.2705C1102.38 35.6104 1102.09 36.0322 1101.89 36.5361C1101.7 37.0342 1101.6 37.6084 1101.6 38.2588V40.4385C1101.6 40.8779 1101.64 41.2617 1101.72 41.5898C1101.8 41.9121 1101.92 42.1816 1102.07 42.3984C1102.23 42.6094 1102.42 42.7705 1102.64 42.8818C1102.86 42.9873 1103.12 43.04 1103.4 43.04C1103.65 43.04 1103.88 42.9844 1104.09 42.873C1104.3 42.7617 1104.48 42.6035 1104.64 42.3984C1104.79 42.1934 1104.91 41.9561 1104.99 41.6865C1105.07 41.4111 1105.11 41.1123 1105.11 40.79C1105.11 40.4502 1105.07 40.1426 1104.98 39.8672C1104.9 39.5859 1104.78 39.3457 1104.62 39.1465C1104.47 38.9473 1104.28 38.7949 1104.06 38.6895C1103.83 38.5781 1103.59 38.5225 1103.32 38.5225C1102.93 38.5225 1102.6 38.6104 1102.32 38.7861C1102.04 38.9619 1101.82 39.1875 1101.67 39.4629C1101.51 39.7383 1101.43 40.0195 1101.43 40.3066L1100.7 39.7002C1100.7 39.3018 1100.78 38.9092 1100.94 38.5225C1101.1 38.1299 1101.33 37.7754 1101.63 37.459C1101.93 37.1367 1102.3 36.8818 1102.73 36.6943C1103.17 36.501 1103.67 36.4043 1104.23 36.4043C1104.82 36.4043 1105.35 36.5186 1105.8 36.7471C1106.25 36.9697 1106.63 37.2803 1106.93 37.6787C1107.24 38.0771 1107.47 38.543 1107.62 39.0762C1107.78 39.6035 1107.86 40.1689 1107.86 40.7725C1107.86 41.3936 1107.75 41.9736 1107.54 42.5127C1107.33 43.0459 1107.03 43.5117 1106.64 43.9102C1106.25 44.3086 1105.79 44.6191 1105.25 44.8418C1104.72 45.0645 1104.12 45.1758 1103.47 45.1758C1102.79 45.1758 1102.17 45.0557 1101.6 44.8154C1101.05 44.5752 1100.56 44.2324 1100.15 43.7871C1099.74 43.3359 1099.42 42.7969 1099.19 42.1699C1098.96 41.543 1098.85 40.8398 1098.85 40.0605V39.0322C1098.85 37.9658 1099.02 37.0049 1099.35 36.1494C1099.68 35.2939 1100.14 34.5615 1100.73 33.9521C1101.33 33.3369 1102.04 32.8652 1102.84 32.5371C1103.65 32.209 1104.53 32.0449 1105.48 32.0449ZM1118.07 32.2031V33.6797L1113.2 45H1110.3L1115.17 34.3389H1108.93V32.2031H1118.07Z" fill="#191919"/>
<path d="M235.561 24.931C235.561 25.816 235.561 26.675 235.561 27.612C236.056 27.0914 236.498 26.5969 236.967 26.1544C239.049 24.2022 241.912 23.7076 244.333 24.8269C245.712 25.4516 246.649 26.5188 247.404 27.8202C247.482 27.9764 247.587 28.1326 247.665 28.2888C248.159 27.7161 248.628 27.0914 249.122 26.5448C251.413 24.0981 254.823 23.5254 257.582 25.1653C259.248 26.1544 260.211 27.6901 260.835 29.4601C261.356 30.9697 261.512 32.5315 261.512 34.1193C261.538 40.132 261.564 46.1447 261.564 52.1574C261.564 54.0575 260.08 55.5151 258.18 55.5151C257.087 55.5151 255.994 55.5151 254.849 55.5151C254.849 55.3069 254.849 55.1507 254.849 54.9946C254.849 49.1901 254.875 43.3856 254.823 37.5811C254.823 36.1235 254.692 34.6659 254.458 33.2082C254.224 31.7246 253.001 30.9697 251.751 31.4383C251.231 31.6205 250.762 31.9849 250.372 32.3753C249.591 33.2082 249.252 34.2754 249.122 35.3947C248.94 36.9304 248.81 38.4661 248.784 40.0279C248.732 45.0254 248.758 49.997 248.758 54.9946C248.758 55.1507 248.758 55.3069 248.758 55.4891C246.519 55.4891 244.333 55.4891 242.068 55.4891C242.068 55.3069 242.068 55.1507 242.068 54.9685C242.068 49.1901 242.068 43.4116 242.068 37.6332C242.068 36.3838 241.964 35.1344 241.886 33.859C241.86 33.5206 241.782 33.2082 241.678 32.8959C241.183 31.3342 239.778 30.8136 238.346 31.6725C237.227 32.3493 236.628 33.3904 236.446 34.6138C236.212 36.1495 236.03 37.7373 236.004 39.299C235.952 44.5309 235.978 49.7367 235.978 54.9685C235.978 55.1247 235.978 55.2809 235.978 55.4891C233.713 55.4891 231.527 55.4891 229.288 55.4891C229.288 45.3118 229.288 35.1344 229.288 24.931C231.37 24.931 233.427 24.931 235.561 24.931Z" fill="#044988"/>
<path d="M136 41.2249C137.406 41.0687 138.733 40.8084 140.087 40.7564C141.622 40.6783 142.898 41.7194 143.34 43.2031C143.548 43.9059 143.783 44.6087 144.095 45.2594C145.058 47.3157 146.724 48.2527 148.988 48.2007C152.424 48.1226 154.637 45.1553 153.778 41.8236C153.492 40.7303 152.763 40.0015 151.774 39.5851C150.186 38.9083 148.546 38.3617 146.958 37.711C145.735 37.2164 144.538 36.7479 143.366 36.1492C140.555 34.7437 138.733 32.4531 137.822 29.5118C136.677 25.8678 136.833 22.2497 138.473 18.7879C140.165 15.1959 143.132 13.3998 147.01 13.0615C148.884 12.9053 150.732 13.0354 152.554 13.582C155.522 14.4931 157.5 16.5233 158.749 19.3345C159.738 21.5209 160.077 23.8635 160.103 26.2322C160.103 26.2842 160.077 26.3103 160.077 26.4144C157.786 26.5445 155.496 26.7007 153.231 26.8308C153.049 25.9458 152.893 25.0869 152.685 24.254C152.607 23.8896 152.45 23.5512 152.294 23.2128C151.774 21.9894 150.863 21.2866 149.561 21.0524C148.39 20.8442 147.219 20.8442 146.099 21.2866C144.902 21.7552 144.043 22.51 143.887 23.8896C143.731 25.3212 144.173 26.4925 145.475 27.1692C146.75 27.8199 148.077 28.3665 149.405 28.9132C151.097 29.6159 152.867 30.2146 154.533 30.9955C157.63 32.4531 159.53 34.9779 160.337 38.2316C161.326 42.1619 161.196 46.0663 159.504 49.8145C157.916 53.3544 155.183 55.4368 151.357 56.0354C149.327 56.3478 147.323 56.3478 145.318 55.8793C142.742 55.2806 140.659 53.901 139.15 51.7146C136.989 48.5651 136.338 44.9731 136 41.2249Z" fill="#044988"/>
<path d="M206.539 24.9048C206.07 26.7008 205.628 28.4448 205.159 30.1627C203.389 36.9302 201.593 43.7238 199.797 50.4914C198.886 53.9532 197.949 57.4151 196.96 60.877C196.674 61.8661 196.231 62.8291 195.763 63.7402C194.435 66.2389 192.223 67.3582 189.464 67.4623C188.917 67.4883 188.37 67.4883 187.85 67.3842C186.366 67.1239 185.299 65.9266 185.169 64.4169C185.039 62.8291 184.909 61.2674 184.778 59.6015C185.013 59.6536 185.221 59.7056 185.403 59.7577C186.236 59.8879 187.095 60.0701 187.928 60.1221C188.865 60.1742 189.62 59.7317 190.114 58.9248C190.817 57.7795 191.208 56.5301 191.468 55.2287C191.494 55.0725 191.468 54.8642 191.416 54.7081C189.412 47.3158 187.381 39.8975 185.377 32.5053C184.726 30.0846 184.076 27.6899 183.425 25.2692C183.399 25.1651 183.373 25.061 183.347 24.9308C185.715 24.9308 188.058 24.9308 190.453 24.9308C191.988 31.2299 193.498 37.5289 195.034 43.8279C195.06 43.8279 195.086 43.8279 195.112 43.8279C195.19 43.4635 195.294 43.1251 195.372 42.7607C196.752 36.9563 198.105 31.1518 199.459 25.3473C199.537 25.0089 199.667 24.8788 200.057 24.8788C202.062 24.9048 204.066 24.8788 206.07 24.8788C206.2 24.9048 206.33 24.9048 206.539 24.9048Z" fill="#044988"/>
<path d="M227.883 24.9567C227.883 35.134 227.883 45.3114 227.883 55.5148C227.544 55.5148 227.206 55.5148 226.894 55.5148C226.087 55.4887 225.254 55.5408 224.447 55.4627C223.015 55.2805 222 54.2914 221.662 52.8858C221.636 52.8077 221.61 52.7036 221.61 52.7036C220.855 53.3804 220.152 54.1613 219.345 54.7599C216.664 56.7121 213.41 56.66 210.912 54.7079C209.376 53.4845 208.543 51.8186 208.101 49.9446C207.71 48.2527 207.58 46.5087 207.554 44.7648C207.528 38.3096 207.554 31.8283 207.554 25.3731C207.554 25.243 207.554 25.1389 207.554 24.9827C209.792 24.9827 211.979 24.9827 214.243 24.9827C214.243 25.1389 214.243 25.295 214.243 25.4512C214.243 30.5269 214.217 35.6025 214.243 40.6782C214.243 42.5263 214.374 44.3743 214.504 46.2224C214.53 46.743 214.738 47.2636 214.972 47.7581C215.909 49.6843 218.148 49.476 219.371 48.3047C220.516 47.2115 220.985 45.8059 221.037 44.2702C221.115 41.1467 221.193 37.9972 221.219 34.8737C221.245 31.7502 221.219 28.6268 221.219 25.5033C221.219 25.3471 221.219 25.1909 221.219 25.0087C223.432 24.9567 225.644 24.9567 227.883 24.9567Z" fill="#044988"/>
<path d="M176.007 24.9306C178.245 24.9306 180.458 24.9306 182.67 24.9306C182.67 35.1079 182.67 45.2853 182.67 55.5668C181.421 55.5147 180.171 55.5928 178.948 55.3846C177.646 55.1763 176.813 54.2393 176.475 52.9378C176.449 52.8337 176.423 52.7296 176.397 52.6515C175.746 53.2762 175.148 53.953 174.445 54.4996C172.024 56.4517 168.875 56.686 166.402 55.1763C164.554 54.031 163.513 52.3392 162.966 50.2829C162.524 48.6691 162.367 47.0292 162.367 45.3634C162.341 38.6739 162.341 31.9844 162.341 25.295C162.341 25.1648 162.341 25.0607 162.367 24.9045C164.58 24.9045 166.792 24.9045 169.031 24.9045C169.031 25.0867 169.031 25.2429 169.031 25.3991C169.031 30.2405 169.005 35.1079 169.031 39.9493C169.057 42.0056 169.161 44.088 169.291 46.1442C169.317 46.7169 169.577 47.3156 169.838 47.8101C170.619 49.2417 172.415 49.528 173.768 48.4869C174.939 47.6019 175.59 46.4045 175.694 44.9729C175.85 43.1769 175.955 41.3809 175.955 39.611C175.981 34.8737 175.955 30.1624 175.955 25.4251C176.007 25.295 176.007 25.1388 176.007 24.9306Z" fill="#044988"/>
<path d="M259.378 21.3388C259.378 19.8291 260.601 18.6057 262.163 18.6057C263.751 18.6057 265 19.803 265 21.3388C265 22.8484 263.751 24.0718 262.215 24.0718C260.653 24.1239 259.378 22.8745 259.378 21.3388ZM262.215 23.4992C263.386 23.4992 264.271 22.5882 264.297 21.3908C264.323 20.1675 263.386 19.1784 262.215 19.1784C261.044 19.1784 260.107 20.1154 260.107 21.3388C260.08 22.5361 260.992 23.4992 262.215 23.4992Z" fill="#044988"/>
<path d="M261.174 19.9591C261.642 19.9591 262.059 19.933 262.501 19.9591C262.892 19.9851 263.23 20.1153 263.386 20.5317C263.516 20.9482 263.256 21.2085 263.022 21.3386C263.204 21.8071 263.36 22.2496 263.542 22.6921C262.866 22.8483 262.84 22.8223 262.683 22.2496C262.553 21.703 262.423 21.6249 261.772 21.703C261.772 22.0414 261.772 22.3798 261.772 22.7442C261.564 22.7442 261.382 22.7442 261.174 22.7442C261.174 21.8592 261.174 20.9742 261.174 19.9591ZM261.694 21.2345C262.137 21.2605 262.501 21.3126 262.683 20.9742C262.735 20.8701 262.683 20.5838 262.605 20.5577C262.371 20.4536 262.007 20.3495 261.903 20.4536C261.746 20.6098 261.772 20.9482 261.694 21.2345Z" fill="#044988"/>
<defs>
<filter id="filter0_b_1665_36476" x="-7" y="-6" width="1452" height="92" filterUnits="userSpaceOnUse" color-interpolation-filters="sRGB">
<feFlood flood-opacity="0" result="BackgroundImageFix"/>
<feGaussianBlur in="BackgroundImageFix" stdDeviation="3"/>
<feComposite in2="SourceAlpha" operator="in" result="effect1_backgroundBlur_1665_36476"/>
<feBlend mode="normal" in="SourceGraphic" in2="effect1_backgroundBlur_1665_36476" result="shape"/>
</filter>
</defs>
</svg>
