<svg width="32" height="41" viewBox="0 0 32 41" fill="none" xmlns="http://www.w3.org/2000/svg">
<path d="M9.37276 4.38708C9.65684 4.8308 9.90935 5.27452 10.225 5.71824C11.0456 6.95431 11.9926 8.06361 12.971 9.1729C14.0758 10.4407 15.1805 11.7084 16.0958 13.103C17.0112 14.4975 17.7056 16.0188 17.9581 17.6669C18.5263 21.2167 17.5162 24.1642 14.6439 26.3828C12.971 27.6823 11.0141 28.2528 8.93087 28.0309C5.58511 27.714 3.18627 26.0025 1.73433 22.9599C1.07149 21.5653 0.913674 20.0757 1.03993 18.5227C1.22931 16.209 2.1131 14.1489 3.47034 12.3106C4.51194 10.8844 5.61668 9.55323 6.72141 8.19039C7.66832 6.98601 8.61523 5.78163 9.37276 4.41878C9.3412 4.41878 9.37276 4.41878 9.37276 4.38708Z" stroke="#9E9E9E" stroke-linecap="round" stroke-linejoin="round"/>
<path d="M9.4474 6.14197C9.719 6.53405 9.95665 6.9588 10.2282 7.35089C11.0091 8.46178 11.9257 9.47466 12.8084 10.4875C13.8269 11.6311 14.8794 12.7747 15.7621 14.0489C16.6448 15.3232 17.2898 16.6955 17.5275 18.1985C18.0707 21.4005 17.0861 24.1124 14.3701 26.1055C12.7745 27.2817 10.9412 27.7718 8.93815 27.6084C5.78082 27.3144 3.50618 25.7461 2.14819 23.0015C1.50314 21.7272 1.36734 20.3549 1.46919 18.9826C1.63894 16.8915 2.48769 15.0292 3.77778 13.3628C4.76232 12.0885 5.81477 10.8469 6.83326 9.60536C7.74991 8.52713 8.63261 7.41623 9.34555 6.17464C9.41345 6.17464 9.41345 6.14197 9.4474 6.14197Z" stroke="#9E9E9E" stroke-width="0.5" stroke-linecap="round" stroke-linejoin="round"/>
<path d="M18.0501 0C18.1435 0.15415 18.2369 0.3083 18.3614 0.462449C18.6416 0.894069 18.9841 1.29486 19.3265 1.66482C19.7313 2.12727 20.1049 2.55889 20.4473 3.05217C20.7898 3.54544 21.0389 4.06955 21.1323 4.65532C21.3191 5.91935 20.9766 6.96757 19.9492 7.73832C19.3577 8.20077 18.6416 8.38575 17.8944 8.32409C16.6802 8.20077 15.8397 7.615 15.3104 6.53595C15.0613 6.04267 14.9991 5.51856 15.0613 4.96362C15.1236 4.13121 15.4349 3.42212 15.9331 2.7747C16.3066 2.28142 16.7114 1.78814 17.085 1.32569C17.4274 0.924899 17.7699 0.493279 18.0501 0Z" fill="#03ABE0"/>
<path d="M14.3808 16.2324C14.7443 16.2324 15.0389 16.036 15.0389 15.7937C15.0389 15.5514 14.7443 15.355 14.3808 15.355C14.0174 15.355 13.7228 15.5514 13.7228 15.7937C13.7228 16.036 14.0174 16.2324 14.3808 16.2324Z" stroke="#9E9E9E" stroke-width="0.5" stroke-linecap="round" stroke-linejoin="round"/>
<path d="M13.0004 13.8677C13.2559 13.7127 13.1156 13.0145 12.6871 12.3082C12.2585 11.6018 11.704 11.1549 11.4485 11.3099C11.193 11.4649 11.3333 12.1632 11.7619 12.8695C12.1904 13.5758 12.745 14.0228 13.0004 13.8677Z" stroke="#9E9E9E" stroke-width="0.5" stroke-linecap="round" stroke-linejoin="round"/>
<path d="M6.62326 25.4956C6.82707 25.2771 6.62445 24.7569 6.1707 24.3337C5.71695 23.9105 5.18389 23.7446 4.98008 23.9632C4.77627 24.1817 4.97889 24.7019 5.43264 25.1251C5.88639 25.5483 6.41945 25.7142 6.62326 25.4956Z" stroke="#9E9E9E" stroke-width="0.5" stroke-linecap="round" stroke-linejoin="round"/>
<path d="M8.36279 37.6837C8.36279 37.6837 7.41004 36.0958 9.52726 33.4139C10.0213 32.073 11.7151 33.1317 11.9268 32.9552C12.2796 32.6729 12.9148 31.332 14.044 30.2734C17.361 27.2034 21.9483 27.9445 22.7952 26.1095C23.148 26.1095 23.8185 28.7208 24.2772 28.2973C25.1241 27.9092 25.6181 27.4504 26.7826 27.027C28.6175 26.3918 28.8998 26.4624 30.3466 25.9331C30.3466 25.9331 30.8053 27.027 30.523 28.4738C30.4877 28.6502 30.4172 28.7914 30.3466 28.9325C29.9231 29.5677 29.3233 30.0264 29.2527 30.4146C29.2174 30.7321 30.3113 31.2614 30.276 31.6143C29.8173 33.9433 27.9824 35.4959 19.9016 39.0952C14.3616 41.5652 10.5153 39.448 9.03325 38.3188" stroke="#9E9E9E" stroke-linecap="round" stroke-linejoin="round"/>
<path d="M8.53923 37.5776C6.63373 38.0011 5.15168 38.1775 3.59905 38.2128L2.89331 38.9891C2.89331 38.9891 6.84545 38.848 8.92739 38.2128" stroke="#9E9E9E" stroke-linecap="round" stroke-linejoin="round"/>
<path d="M11.0094 36.9425C13.7971 38.6362 19.2665 37.0483 20.6075 36.6249C21.7013 36.3073 19.9723 35.6016 18.949 35.284C20.6427 35.1428 24.1513 34.4032 25.4216 33.4857C26.8838 32.3159 27.5943 31.2898 27.5943 30.1321" stroke="#9E9E9E" stroke-width="0.5" stroke-linecap="round" stroke-linejoin="round"/>
<path d="M29.3587 28.0502C28.3354 28.6853 24.9478 31.3671 22.0896 32.5669C20.6428 33.1668 11.6446 36.4838 8.53936 37.5777" stroke="#9E9E9E" stroke-linecap="round" stroke-linejoin="round"/>
<path d="M9.7038 37.119C9.66851 36.625 9.80966 36.131 10.0214 35.6722C10.1978 35.2135 10.4095 34.7548 10.5154 34.2607" stroke="#9E9E9E" stroke-width="0.5" stroke-linecap="round" stroke-linejoin="round"/>
<path d="M13.2677 35.8134C13.55 34.0491 14.3616 32.3906 15.5614 31.0497" stroke="#9E9E9E" stroke-width="0.5" stroke-linecap="round" stroke-linejoin="round"/>
<path d="M14.9262 35.2134C15.1379 34.1195 15.5967 33.0609 16.2318 32.1434" stroke="#9E9E9E" stroke-width="0.5" stroke-linecap="round" stroke-linejoin="round"/>
<path d="M20.8898 32.9903C21.031 32.4963 21.1721 32.0376 21.3838 31.5789" stroke="#9E9E9E" stroke-width="0.5" stroke-linecap="round" stroke-linejoin="round"/>
<path d="M25.5476 30.591C25.6534 30.3793 25.9006 29.3108 26.0065 29.0991" stroke="#9E9E9E" stroke-width="0.5" stroke-linecap="round" stroke-linejoin="round"/>
</svg>
