<svg width="22" height="29" viewBox="0 0 22 29" fill="none" xmlns="http://www.w3.org/2000/svg">
<path d="M11.1929 1C11.525 1.51066 13.8863 4.82995 14.9931 6.1066C16.2845 7.56563 17.5758 9.02466 18.6458 10.6296C19.7157 12.2345 20.5274 13.9854 20.8226 15.8821C21.4867 19.9674 20.306 23.3596 16.9486 25.9129C14.9931 27.4084 12.7056 28.065 10.2705 27.8097C6.3596 27.4449 3.55556 25.4752 1.85837 21.9735C1.08357 20.3686 0.899093 18.6542 1.04667 16.8669C1.26805 14.2407 2.33801 11.8698 3.88762 9.75417C5.10516 8.14924 10.2705 2.60493 11.156 1.03648C11.156 1.03648 11.1929 1.03648 11.1929 1Z" stroke="#9E9E9E" stroke-linecap="round" stroke-linejoin="round"/>
</svg>
